<svg width="198" height="246" viewBox="0 0 198 246" fill="none" xmlns="http://www.w3.org/2000/svg">
<g filter="url(#filter0_g_789_7371)">
<path d="M137.785 79.072C138.917 78.9288 139.948 80.1574 139.64 81.2556C138.895 83.9072 138.906 86.8838 140.253 89.2087C140.3 89.2905 140.318 89.3871 140.302 89.4802C140.286 89.5697 140.302 89.6616 140.352 89.738C140.498 89.9642 140.777 90.3636 140.991 90.6599C141.148 90.8767 141.337 91.068 141.546 91.2351L143.829 93.0593C144.017 93.2093 144.284 93.2749 144.515 93.2087C144.692 93.1578 144.788 93.0226 144.859 92.8523C145.681 90.8943 147.336 89.4167 148.952 88.2107C149.186 88.0691 149.365 87.8516 149.539 87.6403C150.045 87.0263 150.636 86.9187 151.358 86.5671C151.811 86.3453 152.18 86.0609 152.679 85.906C155.52 85.0419 158.429 84.9844 160.536 87.3288C160.636 87.4286 160.706 87.5588 160.781 87.6657C163.508 91.4656 161.077 95.0087 157.451 96.8874C155.339 97.9878 153.006 98.3097 150.666 98.1931C148.394 98.0798 146.602 99.3811 147.188 101.58C147.208 101.657 147.228 101.734 147.247 101.81C147.312 102.079 147.451 102.309 147.58 102.553C147.743 102.886 147.876 103.32 148.003 103.53C148.182 103.843 148.672 104.458 148.958 104.895C151.81 108.538 155.591 111.05 160.009 112.537C160.119 112.574 160.246 112.589 160.359 112.617C160.617 112.682 160.802 112.551 160.89 112.3C163.039 106.12 170.198 100.83 176.857 103.534C177.702 103.874 178.389 104.571 178.935 105.265C179.156 105.539 179.225 105.61 179.411 105.947C181.192 109.249 179.957 111.969 177.314 114.213C177.202 114.309 177.073 114.368 176.964 114.453C173.626 116.886 169.775 117.276 165.711 116.89C164.207 116.759 162.845 117.567 162.986 119.07C163.147 120.771 163.672 122.535 164.32 123.93C164.375 124.048 164.442 124.161 164.517 124.267C164.621 124.403 164.776 124.594 164.882 124.789C164.96 124.943 165.206 125.211 165.358 125.472C165.467 125.655 165.679 125.915 165.836 126.154C165.997 126.385 166.185 126.597 166.381 126.8C166.722 127.153 167.034 127.531 167.329 127.921C167.413 128.041 167.485 128.171 167.573 128.268C168.249 128.887 168.949 129.465 169.672 130.007C172.021 131.766 175.214 130.906 177.466 129.023C179.027 127.718 180.781 126.654 182.714 125.952C186.308 124.64 191.173 124.305 193.962 127.438C196.507 130.294 195.888 133.711 193.179 136.188C193.067 136.285 192.939 136.343 192.829 136.428C188.462 139.797 182.808 138.633 177.733 137.586C176.814 137.396 176.087 136.855 175.041 136.782C174.856 136.748 174.698 136.834 174.623 137.007C173.039 140.667 172.178 143.877 172.409 147.93C172.417 148.128 172.407 148.313 172.492 148.492C173.084 149.733 173.273 151.146 174.112 152.233C174.229 152.384 174.381 152.494 174.569 152.526C174.766 152.559 174.973 152.521 175.159 152.447C179.896 150.569 187.763 149.933 191.478 153.779C191.567 153.869 191.622 153.99 191.694 154.092C191.7 154.101 191.691 154.113 191.682 154.108C191.673 154.104 191.665 154.115 191.671 154.123C193.272 156.183 193.31 158.318 191.644 160.468C191.429 160.745 191.109 160.757 191.023 160.835C190.767 161.08 190.716 161.364 190.284 161.601C185.399 164.385 178.712 160.86 174.74 157.886C174.097 157.408 173.862 156.559 172.956 156.944C171.382 157.608 169.611 159.539 168.513 161.172C168.142 161.723 167.924 162.359 167.806 163.012C167.708 163.553 167.61 164.092 167.513 164.627C167.46 164.921 167.384 165.211 167.355 165.498C167.308 165.902 167.226 167.036 167.223 168.05C167.219 169.246 168.076 169.978 169.248 170.215C173.442 171.061 177.428 171.979 180.251 175.58C180.461 175.851 180.55 175.949 180.729 176.261C182.132 178.654 182.013 181.063 179.821 182.956C179.712 183.041 179.593 183.113 179.475 183.184C177.543 184.423 175.145 184.329 173.153 183.232C173.145 183.227 173.136 183.222 173.128 183.217C172.766 183.002 172.422 182.765 172.047 182.572C170.509 181.783 169.251 180.366 168.198 179.051C167.67 178.395 167.444 178.015 167.001 177.34C166.753 176.956 166.711 176.598 166.577 176.363C165.574 174.659 163.43 173.544 161.584 174.254C160.07 174.836 158.698 175.69 157.369 176.81C156.562 177.494 154.003 180.174 153.728 181.047C153.533 181.665 153.771 181.393 154.057 181.573C156.152 182.875 157.907 183.918 159.447 185.949C162.165 189.537 163.275 195.767 158.441 198.139C155.212 199.716 153.001 198.522 151.038 195.9C150.952 195.791 150.866 195.681 150.793 195.562C149.725 193.929 148.766 191.98 148.846 189.977C148.857 189.693 148.693 189.48 148.636 189.202C147.897 185.903 146.621 182.328 143.264 182.717C141.296 182.946 139.359 183.475 137.526 184.212C137.41 184.272 137.296 184.379 137.178 184.451C136.868 184.605 136.585 184.601 136.544 184.629C136.099 184.875 135.381 185.458 134.822 185.812C134.703 185.886 134.585 185.962 134.469 186.041C133.968 186.377 133.815 187.005 133.964 187.59C133.701 187.465 133.966 187.667 133.99 187.958C133.991 187.961 133.991 187.966 133.99 187.969C133.984 188.029 133.94 188.08 133.925 188.137C133.914 188.18 133.903 188.223 133.897 188.266C133.892 188.31 133.9 188.354 133.91 188.396L140.527 216.486C140.659 217.406 140.719 218.482 140.089 219.17C139.988 219.28 139.89 219.397 139.804 219.519C139.85 219.847 139.819 220.191 139.688 220.526L136.802 227.896C136.359 229.16 135.849 230.591 135.345 231.822C135.253 232.045 135.143 232.254 135.02 232.449L133.664 235.914C133.316 236.804 132.386 237.323 131.445 237.153C130.508 236.983 129.61 237.605 129.44 238.543L128.753 242.337C128.556 243.423 127.516 244.145 126.43 243.949L112.132 241.359C111.045 241.162 110.323 240.122 110.52 239.035C111.069 236.002 109.055 233.098 106.022 232.549L28.3233 218.477C25.2905 217.928 22.3865 219.942 21.8379 222.975C21.6409 224.062 20.6003 224.783 19.5137 224.587L5.21585 221.997C4.12896 221.8 3.4077 220.759 3.60452 219.673L4.44339 215.033C4.52829 214.562 4.21576 214.112 3.74515 214.027C2.79829 213.855 2.10756 213.033 2.10159 212.071L1.99906 195.574C1.99855 195.489 2.00408 195.406 2.0137 195.324C2.00989 195.197 2.00607 195.07 2.00296 194.943C1.97462 193.783 2.32216 192.648 2.95804 191.677C7.97742 184.015 13.3836 175.766 18.5557 168.333C18.6332 168.23 18.8537 168.188 18.9043 168.103L39.1065 137.18C39.2156 137.013 39.2672 136.827 39.3242 136.635C39.7922 135.192 40.6124 133.668 41.1953 131.99L42.4034 126.265L42.6778 124.747C42.6975 124.638 42.7279 124.531 42.7676 124.427C42.8013 124.34 42.8283 124.249 42.8477 124.157L44.5088 116.283C44.7331 115.22 45.7659 114.529 46.834 114.729L62.0157 117.569C63.0969 117.771 63.8123 118.81 63.6162 119.892L61.6582 130.702C61.0677 133.963 63.2325 137.085 66.4932 137.675L100.27 143.793C103.53 144.383 106.653 142.218 107.243 138.958L109.196 128.17C109.394 127.079 110.442 126.357 111.532 126.561L125.886 129.251C126.099 129.291 126.299 129.363 126.48 129.463C127.41 129.973 127.932 131.188 127.858 132.246C127.59 136.006 126.739 140.186 126.324 144.036C126.301 144.23 126.243 144.419 126.22 144.613C126.037 146.402 125.547 148.85 125.525 150.528C125.507 152.264 126.711 154.564 126.719 156.494C126.72 156.775 126.872 156.996 126.942 157.268C127.816 160.511 128.609 163.867 129.057 167.184C129.479 168.756 129.916 170.308 130.314 171.887C131.144 175.169 132.269 179.1 132.607 182.432C132.608 182.435 132.608 182.438 132.608 182.441C132.615 182.617 132.653 182.763 132.77 182.895C132.917 183.063 132.994 183.268 133.038 183.49C133.042 183.509 133.063 183.52 133.081 183.512C133.083 183.512 133.085 183.511 133.087 183.509C133.33 183.332 133.603 183.126 133.892 182.957C136.135 181.623 137.124 180.843 139.805 180.149C143.983 179.06 146.102 179.654 150.214 179.967C150.57 179.994 150.836 180.014 151.027 179.912C151.473 179.674 151.478 179.03 151.717 178.585C153.338 175.567 156.093 173.419 159.174 171.97C161.894 170.691 163.771 167.994 164.165 165.013C164.567 161.973 165.704 159.101 167.894 156.74C168.025 156.6 168.486 156.461 168.782 156.188C168.894 156.092 169.022 156.033 169.132 155.948C169.638 155.523 169.988 154.639 170.789 154.526C171.031 154.492 171.316 154.38 171.473 154.193C171.579 154.066 171.535 153.933 171.441 153.797C168.049 148.821 168.764 142.348 171.16 137.004C171.617 135.984 171.53 135.015 170.574 134.435C169.653 133.877 168.532 133.266 168.166 132.99C167.596 132.56 166.982 131.854 166.385 131.313C165.443 130.465 165.132 130.035 164.372 129.161C163.723 128.41 162.756 127.518 162.347 126.48C162.246 126.225 162.12 125.981 161.977 125.748C160.823 124.055 159.853 120.888 159.717 118.842C159.607 117.148 158.586 115.495 157.018 114.842C153.935 113.56 151.143 111.681 148.741 109.342C146.809 107.461 145.454 105.709 144.447 103.202C143.71 101.351 143.102 99.4198 143.38 97.4245C143.438 97.0067 143.674 96.3535 143.312 96.1384C143.185 96.0576 142.857 96.1148 142.73 96.0339C141.328 95.0672 140.429 94.6935 139.312 93.323C139.212 93.2233 139.152 93.096 139.066 92.987C138.982 92.8666 138.895 92.7567 138.822 92.6384C136.186 88.6714 135.773 84.5235 136.908 79.9382C136.929 79.8562 136.876 79.7727 136.793 79.7575C136.714 79.743 136.662 79.6677 136.676 79.5886C136.684 79.5415 136.692 79.4943 136.7 79.4499C136.732 79.278 136.879 79.1518 137.054 79.1413C137.298 79.1267 137.543 79.1027 137.785 79.072ZM152.853 184.484C152.691 184.377 152.479 184.349 152.325 184.467C152.269 184.51 152.253 184.555 152.234 184.624C152.031 185.361 151.924 186.086 151.88 186.809C151.734 189.197 152.074 192.465 153.634 194.278C154.082 194.799 154.724 195.222 155.674 195.404C156.467 195.556 157.345 195.391 157.869 194.776C158.705 193.796 158.788 192.287 158.547 190.989C158.475 190.602 158.331 190.233 158.137 189.89C157.226 188.28 155.572 186.126 154.251 185.183C153.896 184.925 153.292 184.774 152.853 184.484ZM133.987 187.603C134.031 187.635 133.977 187.642 133.964 187.59C133.972 187.594 133.98 187.598 133.987 187.603ZM169.172 173.282C168.435 173.207 168.55 173.927 168.923 174.567C170.321 176.966 172.045 178.994 174.432 180.494C174.9 180.788 175.422 181.005 175.973 181.053C177.453 181.184 178.346 180.563 178.478 179.239C178.563 178.378 178.114 177.585 177.538 176.939C177.338 176.715 177.176 176.536 177.149 176.513C175.953 175.496 174.472 174.984 173.089 174.299C172.509 174.011 171.907 173.761 171.273 173.632C170.567 173.487 169.825 173.353 169.172 173.282ZM189.314 155.77C186.981 153.829 181.636 153.691 178.742 154.452C178.286 154.576 177.446 154.8 177.011 155.127C176.728 155.339 176.898 155.707 177.185 155.915C180.513 158.329 183.152 159.372 187.465 159.316V159.313C187.569 159.312 187.662 159.374 187.756 159.368C189.104 159.112 189.493 158.354 189.681 157.277C189.773 156.745 189.704 156.143 189.314 155.77ZM191.353 129.18C188.737 127.676 185.384 128.036 182.718 129.239L182.679 129.27C181.497 129.809 177.586 132.737 177.071 133.761C176.936 134.034 177.332 134.283 177.735 134.467C178.163 134.663 178.625 134.779 179.088 134.863L183.498 135.662C183.779 135.713 183.986 135.51 184.271 135.498C186.477 135.407 188.322 135.564 190.453 134.525C190.599 134.434 191.029 134.14 191.139 134.054C192.081 133.113 192.305 131.787 192.211 130.505C192.19 130.215 192.089 129.947 191.923 129.71C191.772 129.495 191.58 129.311 191.353 129.18ZM176.48 107.239C174.461 105.647 171.613 105.633 169.344 106.846C167.326 107.925 165.638 110.203 164.286 112.023C164.212 112.123 164.152 112.231 164.105 112.346L163.732 113.276C163.669 113.435 163.751 113.56 163.915 113.609C166.963 114.52 171.622 113.803 174.602 112.49C174.841 112.384 175.091 112.237 175.309 112.092C175.551 111.93 175.741 111.743 175.919 111.512C176.823 110.34 177.421 109.018 176.895 107.576C176.825 107.386 176.637 107.368 176.48 107.239ZM157.844 89.2517C156.44 88.0472 154.264 88.9141 152.365 89.4802C152.363 89.481 152.36 89.4815 152.357 89.4812C152.353 89.4806 152.348 89.4815 152.344 89.4841C151.84 89.8213 151.241 90.2541 150.647 90.7487C148.487 92.5447 149.865 95.327 152.652 94.9782C153.475 94.8753 154.299 94.7078 155.143 94.5114C155.702 94.3811 156.241 94.1656 156.733 93.8689C157.612 93.3393 158.048 92.9884 158.345 92.2653C158.762 91.2492 158.677 89.967 157.844 89.2517Z" fill="black"/>
<path d="M137.785 79.072L137.722 78.5759L137.722 78.5759L137.785 79.072ZM139.64 81.2556L139.158 81.1204V81.1204L139.64 81.2556ZM140.253 89.2087L139.82 89.4593V89.4594L140.253 89.2087ZM140.302 89.4802L139.81 89.3923L139.809 89.3929L140.302 89.4802ZM140.352 89.738L139.931 90.0091L139.932 90.0094L140.352 89.738ZM140.991 90.6599L140.586 90.9527L140.586 90.9528L140.991 90.6599ZM141.546 91.2351L141.234 91.6256L141.234 91.6257L141.546 91.2351ZM143.829 93.0593L144.141 92.6687V92.6687L143.829 93.0593ZM144.515 93.2087L144.652 93.6894L144.652 93.6893L144.515 93.2087ZM144.859 92.8523L144.398 92.6588L144.398 92.6588L144.859 92.8523ZM148.952 88.2107L148.694 87.7827L148.673 87.7953L148.653 87.8099L148.952 88.2107ZM149.539 87.6403L149.925 87.9581L149.539 87.6403ZM151.358 86.5671L151.577 87.0167L151.579 87.016L151.358 86.5671ZM152.679 85.906L152.533 85.4276L152.53 85.4285L152.679 85.906ZM160.536 87.3288L160.164 87.6631L160.173 87.6728L160.182 87.682L160.536 87.3288ZM160.781 87.6657L160.371 87.9523L160.375 87.9572L160.781 87.6657ZM157.451 96.8874L157.221 96.4435L157.22 96.444L157.451 96.8874ZM150.666 98.1931L150.641 98.6925L150.666 98.1931ZM147.188 101.58L147.671 101.451L147.671 101.451L147.188 101.58ZM147.247 101.81L146.761 101.928L146.761 101.928L147.247 101.81ZM147.58 102.553L148.029 102.333L148.026 102.326L148.022 102.32L147.58 102.553ZM148.003 103.53L148.437 103.282L148.431 103.272L148.003 103.53ZM148.958 104.895L148.54 105.169L148.551 105.187L148.564 105.203L148.958 104.895ZM160.009 112.537L159.849 113.011L160.009 112.537ZM160.359 112.617L160.481 112.132L160.481 112.132L160.359 112.617ZM160.89 112.3L161.362 112.465L161.362 112.465L160.89 112.3ZM176.857 103.534L176.669 103.997L176.671 103.998L176.857 103.534ZM178.935 105.265L178.541 105.574L178.546 105.58L178.935 105.265ZM179.411 105.947L179.851 105.71L179.849 105.705L179.411 105.947ZM177.314 114.213L176.99 113.831L176.987 113.834L177.314 114.213ZM176.964 114.453L177.258 114.857L177.265 114.852L177.271 114.848L176.964 114.453ZM165.711 116.89L165.758 116.393L165.754 116.392L165.711 116.89ZM162.986 119.07L162.489 119.117L162.489 119.117L162.986 119.07ZM164.32 123.93L163.867 124.141V124.141L164.32 123.93ZM164.517 124.267L164.107 124.554L164.114 124.564L164.121 124.573L164.517 124.267ZM164.882 124.789L165.328 124.563L165.324 124.556L165.321 124.549L164.882 124.789ZM165.358 125.472L164.927 125.725L164.928 125.727L165.358 125.472ZM165.836 126.154L165.418 126.429L165.422 126.435L165.426 126.441L165.836 126.154ZM166.381 126.8L166.021 127.147V127.147L166.381 126.8ZM167.329 127.921L167.739 127.634L167.733 127.626L167.727 127.618L167.329 127.921ZM167.573 128.268L167.202 128.603L167.218 128.621L167.236 128.637L167.573 128.268ZM169.672 130.007L169.372 130.407L169.372 130.407L169.672 130.007ZM177.466 129.023L177.787 129.407L177.787 129.407L177.466 129.023ZM182.714 125.952L182.885 126.422L182.885 126.422L182.714 125.952ZM193.962 127.438L193.588 127.771L193.589 127.771L193.962 127.438ZM193.179 136.188L193.506 136.567L193.516 136.557L193.179 136.188ZM192.829 136.428L193.135 136.824L193.136 136.823L192.829 136.428ZM177.733 137.586L177.632 138.075L177.632 138.075L177.733 137.586ZM175.041 136.782L174.952 137.274L174.979 137.279L175.006 137.281L175.041 136.782ZM174.623 137.007L174.164 136.808L174.623 137.007ZM172.409 147.93L172.909 147.91L172.908 147.902L172.409 147.93ZM172.492 148.492L172.041 148.707L172.041 148.707L172.492 148.492ZM174.112 152.233L173.717 152.539L173.717 152.539L174.112 152.233ZM174.569 152.526L174.486 153.019L174.486 153.019L174.569 152.526ZM175.159 152.447L175.343 152.912L175.343 152.912L175.159 152.447ZM191.478 153.779L191.118 154.126L191.123 154.132L191.478 153.779ZM191.694 154.092L191.286 154.381L191.286 154.381L191.694 154.092ZM191.682 154.108L191.904 153.66L191.895 153.656L191.682 154.108ZM191.671 154.123L192.066 153.816L192.066 153.816L191.671 154.123ZM191.644 160.468L192.038 160.775L192.039 160.775L191.644 160.468ZM191.023 160.835L190.686 160.466L190.678 160.474L191.023 160.835ZM190.284 161.601L190.043 161.163L190.037 161.167L190.284 161.601ZM174.74 157.886L175.04 157.486L175.039 157.485L174.74 157.886ZM172.956 156.944L173.15 157.405L173.152 157.404L172.956 156.944ZM168.513 161.172L168.098 160.893L168.098 160.893L168.513 161.172ZM167.806 163.012L167.314 162.923V162.923L167.806 163.012ZM167.513 164.627L167.021 164.538L167.513 164.627ZM167.355 165.498L167.852 165.556L167.853 165.547L167.355 165.498ZM167.223 168.05L166.723 168.049V168.049L167.223 168.05ZM169.248 170.215L169.347 169.724L169.248 170.215ZM180.251 175.58L180.647 175.274L180.644 175.271L180.251 175.58ZM180.729 176.261L180.295 176.51L180.297 176.515L180.729 176.261ZM179.821 182.956L180.128 183.351L180.138 183.343L180.148 183.334L179.821 182.956ZM179.475 183.184L179.216 182.756L179.205 182.763L179.475 183.184ZM173.153 183.232L172.904 183.666L172.912 183.67L173.153 183.232ZM173.128 183.217L172.872 183.647H172.872L173.128 183.217ZM172.047 182.572L172.275 182.127L172.275 182.127L172.047 182.572ZM168.198 179.051L168.589 178.739L168.588 178.738L168.198 179.051ZM167.001 177.34L166.581 177.611L166.583 177.614L167.001 177.34ZM166.577 176.363L167.011 176.115L167.008 176.109L166.577 176.363ZM161.584 174.254L161.405 173.787L161.405 173.787L161.584 174.254ZM157.369 176.81L157.047 176.428L157.046 176.429L157.369 176.81ZM153.728 181.047L153.251 180.896L153.251 180.897L153.728 181.047ZM154.057 181.573L153.79 181.996L153.793 181.998L154.057 181.573ZM159.447 185.949L159.846 185.647L159.846 185.647L159.447 185.949ZM158.441 198.139L158.661 198.589L158.662 198.588L158.441 198.139ZM151.038 195.9L151.439 195.6L151.43 195.59L151.038 195.9ZM150.793 195.562L151.219 195.3L151.212 195.289L150.793 195.562ZM148.846 189.977L148.346 189.957V189.957L148.846 189.977ZM148.636 189.202L149.125 189.1L149.124 189.093L148.636 189.202ZM143.264 182.717L143.206 182.221H143.206L143.264 182.717ZM137.526 184.212L137.34 183.748L137.317 183.757L137.296 183.768L137.526 184.212ZM137.178 184.451L137.4 184.899L137.419 184.889L137.437 184.879L137.178 184.451ZM136.544 184.629L136.786 185.066L136.806 185.055L136.824 185.043L136.544 184.629ZM134.822 185.812L135.084 186.238L135.09 186.234L134.822 185.812ZM134.469 186.041L134.19 185.625L134.19 185.625L134.469 186.041ZM133.99 187.958L134.489 187.917L134.489 187.916L133.99 187.958ZM133.99 187.969L134.487 188.026L134.487 188.025L133.99 187.969ZM133.925 188.137L133.441 188.01L133.441 188.011L133.925 188.137ZM133.897 188.266L133.401 188.207L133.401 188.208L133.897 188.266ZM133.91 188.396L133.424 188.511V188.511L133.91 188.396ZM140.527 216.486L141.022 216.415L141.019 216.393L141.014 216.371L140.527 216.486ZM140.089 219.17L140.458 219.507L140.458 219.507L140.089 219.17ZM139.804 219.519L139.394 219.232L139.281 219.394L139.309 219.589L139.804 219.519ZM139.688 220.526L140.153 220.708V220.708L139.688 220.526ZM136.802 227.896L136.336 227.714L136.333 227.722L136.33 227.731L136.802 227.896ZM135.345 231.822L135.807 232.012L135.345 231.822ZM135.02 232.449L134.597 232.182L134.571 232.222L134.554 232.267L135.02 232.449ZM133.664 235.914L134.13 236.096L134.13 236.096L133.664 235.914ZM131.445 237.153L131.356 237.645L131.356 237.645L131.445 237.153ZM129.44 238.543L129.932 238.632L129.932 238.632L129.44 238.543ZM128.753 242.337L128.261 242.247L128.753 242.337ZM126.43 243.949L126.341 244.441L126.341 244.441L126.43 243.949ZM112.132 241.359L112.221 240.867L112.132 241.359ZM110.52 239.035L110.028 238.946L110.028 238.946L110.52 239.035ZM106.022 232.549L106.112 232.057H106.112L106.022 232.549ZM28.3233 218.477L28.4124 217.985L28.4124 217.985L28.3233 218.477ZM21.8379 222.975L22.3299 223.064L22.3299 223.064L21.8379 222.975ZM19.5137 224.587L19.4246 225.079L19.4247 225.079L19.5137 224.587ZM5.21585 221.997L5.30497 221.505H5.30495L5.21585 221.997ZM3.60452 219.673L4.09652 219.762L4.09655 219.762L3.60452 219.673ZM4.44339 215.033L4.93541 215.122L4.93545 215.122L4.44339 215.033ZM3.74515 214.027L3.65597 214.519L3.65635 214.519L3.74515 214.027ZM2.10159 212.071L2.60159 212.068H2.60159L2.10159 212.071ZM1.99906 195.574L1.49906 195.577L1.49907 195.577L1.99906 195.574ZM2.0137 195.324L2.51028 195.382L2.51459 195.346L2.51348 195.309L2.0137 195.324ZM2.00296 194.943L1.50311 194.955L1.50311 194.955L2.00296 194.943ZM2.95804 191.677L2.53979 191.403L2.95804 191.677ZM18.5557 168.333L18.1564 168.032L18.1507 168.039L18.1453 168.047L18.5557 168.333ZM18.9043 168.103L18.4857 167.83L18.4805 167.838L18.4756 167.846L18.9043 168.103ZM39.1065 137.18L39.5251 137.454L39.5251 137.454L39.1065 137.18ZM39.3242 136.635L38.8485 136.481L38.8451 136.493L39.3242 136.635ZM41.1953 131.99L41.6676 132.154L41.678 132.124L41.6846 132.093L41.1953 131.99ZM42.4034 126.265L42.8926 126.369L42.8941 126.361L42.8954 126.354L42.4034 126.265ZM42.6778 124.747L42.1858 124.658L42.1857 124.658L42.6778 124.747ZM42.7676 124.427L42.3009 124.248L42.3008 124.248L42.7676 124.427ZM42.8477 124.157L43.3369 124.26L43.3369 124.26L42.8477 124.157ZM44.5088 116.283L44.9981 116.386V116.386L44.5088 116.283ZM46.834 114.729L46.7421 115.221H46.7421L46.834 114.729ZM62.0157 117.569L62.1076 117.078L62.1076 117.078L62.0157 117.569ZM63.6162 119.892L64.1082 119.981L64.1082 119.981L63.6162 119.892ZM61.6582 130.702L61.1662 130.613L61.1662 130.613L61.6582 130.702ZM66.4932 137.675L66.5823 137.183L66.4932 137.675ZM100.27 143.793L100.18 144.285L100.27 143.793ZM107.243 138.958L107.735 139.047L107.735 139.047L107.243 138.958ZM109.196 128.17L108.704 128.08L108.704 128.081L109.196 128.17ZM111.532 126.561L111.624 126.07L111.624 126.07L111.532 126.561ZM125.886 129.251L125.794 129.742H125.794L125.886 129.251ZM126.48 129.463L126.72 129.024L126.72 129.024L126.48 129.463ZM127.858 132.246L128.357 132.281L128.357 132.28L127.858 132.246ZM126.324 144.036L126.821 144.096L126.821 144.089L126.324 144.036ZM126.22 144.613L125.723 144.553L125.722 144.562L126.22 144.613ZM125.525 150.528L125.025 150.522L125.025 150.523L125.525 150.528ZM126.719 156.494L126.219 156.496V156.496L126.719 156.494ZM126.942 157.268L126.458 157.393L126.46 157.398L126.942 157.268ZM129.057 167.184L128.561 167.251L128.565 167.283L128.574 167.314L129.057 167.184ZM130.314 171.887L129.829 172.009L129.829 172.01L130.314 171.887ZM132.607 182.432L133.105 182.383L133.105 182.382L132.607 182.432ZM132.608 182.441L133.108 182.422L133.108 182.421L132.608 182.441ZM132.77 182.895L132.395 183.226L132.395 183.226L132.77 182.895ZM133.038 183.49L132.548 183.587L132.548 183.589L133.038 183.49ZM133.081 183.512L133.28 183.971L133.283 183.97L133.081 183.512ZM133.087 183.509L133.381 183.914L133.381 183.914L133.087 183.509ZM133.892 182.957L134.144 183.388L134.147 183.386L133.892 182.957ZM139.805 180.149L139.93 180.633L139.931 180.633L139.805 180.149ZM150.214 179.967L150.252 179.468L150.252 179.468L150.214 179.967ZM151.027 179.912L151.262 180.353L151.262 180.353L151.027 179.912ZM151.717 178.585L151.276 178.348L151.276 178.348L151.717 178.585ZM159.174 171.97L159.387 172.423L159.387 172.423L159.174 171.97ZM164.165 165.013L163.669 164.948V164.948L164.165 165.013ZM167.894 156.74L167.53 156.397L167.527 156.4L167.894 156.74ZM168.782 156.188L168.455 155.81L168.449 155.815L168.444 155.82L168.782 156.188ZM169.132 155.948L169.439 156.343L169.446 156.337L169.454 156.331L169.132 155.948ZM170.789 154.526L170.859 155.021L170.859 155.021L170.789 154.526ZM171.473 154.193L171.855 154.515L171.856 154.515L171.473 154.193ZM171.441 153.797L171.028 154.078L171.441 153.797ZM171.16 137.004L170.704 136.799V136.799L171.16 137.004ZM170.574 134.435L170.834 134.008V134.008L170.574 134.435ZM168.166 132.99L167.865 133.389L167.865 133.389L168.166 132.99ZM166.385 131.313L166.72 130.943L166.719 130.942L166.385 131.313ZM164.372 129.161L163.994 129.488L163.995 129.489L164.372 129.161ZM162.347 126.48L162.812 126.297L162.812 126.297L162.347 126.48ZM161.977 125.748L162.402 125.486L162.396 125.476L162.39 125.466L161.977 125.748ZM159.717 118.842L159.218 118.875L159.218 118.876L159.717 118.842ZM157.018 114.842L156.826 115.304H156.826L157.018 114.842ZM148.741 109.342L149.09 108.983L149.09 108.983L148.741 109.342ZM144.447 103.202L143.983 103.387L143.983 103.388L144.447 103.202ZM143.38 97.4245L142.885 97.3555V97.3555L143.38 97.4245ZM143.312 96.1384L143.043 96.5602L143.05 96.5644L143.057 96.5684L143.312 96.1384ZM142.73 96.0339L142.447 96.4456L142.454 96.4505L142.461 96.4552L142.73 96.0339ZM139.312 93.323L139.699 93.0069L139.683 92.9875L139.665 92.9697L139.312 93.323ZM139.066 92.987L138.657 93.2736L138.665 93.2854L138.674 93.2968L139.066 92.987ZM138.822 92.6384L139.248 92.3764L139.244 92.3689L139.239 92.3617L138.822 92.6384ZM136.908 79.9382L136.423 79.818V79.818L136.908 79.9382ZM136.793 79.7575L136.703 80.2493L136.703 80.2494L136.793 79.7575ZM136.676 79.5886L136.184 79.5009L136.184 79.501L136.676 79.5886ZM136.7 79.4499L136.208 79.3598L136.208 79.3608L136.7 79.4499ZM137.054 79.1413L137.024 78.6422L137.024 78.6422L137.054 79.1413ZM152.853 184.484L153.128 184.067L153.128 184.067L152.853 184.484ZM152.325 184.467L152.022 184.069L152.022 184.069L152.325 184.467ZM152.234 184.624L151.752 184.491L152.234 184.624ZM151.88 186.809L151.381 186.779L151.88 186.809ZM153.634 194.278L153.255 194.604L153.255 194.604L153.634 194.278ZM155.674 195.404L155.58 195.895L155.58 195.895L155.674 195.404ZM157.869 194.776L158.25 195.101L158.25 195.101L157.869 194.776ZM158.547 190.989L159.038 190.898V190.898L158.547 190.989ZM158.137 189.89L158.572 189.644V189.644L158.137 189.89ZM154.251 185.183L153.957 185.587L153.961 185.59L154.251 185.183ZM133.987 187.603L134.281 187.198L134.28 187.198L133.987 187.603ZM169.172 173.282L169.226 172.785L169.222 172.784L169.172 173.282ZM168.923 174.567L168.491 174.819L168.491 174.819L168.923 174.567ZM174.432 180.494L174.166 180.917L174.166 180.917L174.432 180.494ZM175.973 181.053L175.929 181.551L175.929 181.552L175.973 181.053ZM178.478 179.239L178.975 179.288L178.975 179.288L178.478 179.239ZM177.538 176.939L177.911 176.606V176.606L177.538 176.939ZM177.149 176.513L176.826 176.894L176.828 176.897L177.149 176.513ZM173.089 174.299L172.867 174.747H172.867L173.089 174.299ZM171.273 173.632L171.374 173.142L171.374 173.142L171.273 173.632ZM189.314 155.77L189.66 155.409L189.648 155.397L189.634 155.386L189.314 155.77ZM178.742 154.452L178.615 153.968L178.611 153.969L178.742 154.452ZM177.011 155.127L176.71 154.727L176.71 154.727L177.011 155.127ZM177.185 155.915L176.891 156.319V156.319L177.185 155.915ZM187.465 159.316L187.471 159.816L187.965 159.81V159.316H187.465ZM187.465 159.313L187.457 158.813L186.965 158.821V159.313H187.465ZM187.756 159.368L187.786 159.867L187.818 159.865L187.849 159.859L187.756 159.368ZM189.681 157.277L190.173 157.363L190.173 157.363L189.681 157.277ZM191.353 129.18L191.602 128.747L191.602 128.747L191.353 129.18ZM182.718 129.239L182.512 128.783L182.455 128.809L182.405 128.849L182.718 129.239ZM182.679 129.27L182.886 129.725L182.943 129.699L182.991 129.661L182.679 129.27ZM177.071 133.761L176.624 133.537L176.623 133.54L177.071 133.761ZM177.735 134.467L177.527 134.922L177.527 134.922L177.735 134.467ZM179.088 134.863L178.999 135.355H178.999L179.088 134.863ZM183.498 135.662L183.587 135.17L183.587 135.17L183.498 135.662ZM184.271 135.498L184.25 134.998L184.248 134.998L184.271 135.498ZM190.453 134.525L190.672 134.975L190.695 134.963L190.717 134.95L190.453 134.525ZM191.139 134.054L191.445 134.449L191.47 134.43L191.492 134.408L191.139 134.054ZM192.211 130.505L192.71 130.468L192.71 130.468L192.211 130.505ZM191.923 129.71L192.332 129.422L192.332 129.422L191.923 129.71ZM176.48 107.239L176.798 106.852L176.79 106.846L176.48 107.239ZM169.344 106.846L169.58 107.287V107.287L169.344 106.846ZM164.286 112.023L163.885 111.725L163.885 111.725L164.286 112.023ZM164.105 112.346L164.57 112.533L164.57 112.533L164.105 112.346ZM163.732 113.276L163.268 113.09L163.268 113.09L163.732 113.276ZM163.915 113.609L164.058 113.13L164.058 113.13L163.915 113.609ZM174.602 112.49L174.803 112.947L174.803 112.947L174.602 112.49ZM175.309 112.092L175.586 112.507L175.586 112.507L175.309 112.092ZM175.919 111.512L176.315 111.818L176.315 111.818L175.919 111.512ZM176.895 107.576L177.364 107.404L177.364 107.404L176.895 107.576ZM157.844 89.2517L158.169 88.8722L158.169 88.8722L157.844 89.2517ZM152.365 89.4802L152.507 89.9595L152.508 89.9593L152.365 89.4802ZM152.357 89.4812L152.294 89.9772L152.3 89.9779L152.357 89.4812ZM152.344 89.4841L152.073 89.0639L152.066 89.0686L152.344 89.4841ZM150.647 90.7487L150.327 90.3643L150.327 90.3643L150.647 90.7487ZM152.652 94.9782L152.714 95.4744H152.714L152.652 94.9782ZM155.143 94.5114L155.256 94.9984L155.143 94.5114ZM156.733 93.8689L156.992 94.2971L156.992 94.297L156.733 93.8689ZM158.345 92.2653L158.807 92.4552L158.807 92.4552L158.345 92.2653ZM137.785 79.072L137.848 79.568C138.211 79.5221 138.594 79.6943 138.871 80.0211C139.147 80.3482 139.259 80.7626 139.158 81.1204L139.64 81.2556L140.121 81.3907C140.329 80.6503 140.079 79.9013 139.634 79.3754C139.189 78.8492 138.491 78.4786 137.722 78.5759L137.785 79.072ZM139.64 81.2556L139.158 81.1204C138.392 83.8502 138.383 86.9782 139.82 89.4593L140.253 89.2087L140.686 88.9581C139.429 86.7894 139.399 83.9641 140.121 81.3907L139.64 81.2556ZM140.253 89.2087L139.82 89.4594C139.81 89.4423 139.805 89.4194 139.81 89.3923L140.302 89.4802L140.794 89.5681C140.832 89.3548 140.79 89.1386 140.686 88.958L140.253 89.2087ZM140.302 89.4802L139.809 89.3929C139.773 89.5982 139.809 89.8197 139.931 90.0091L140.352 89.738L140.772 89.4669C140.795 89.5036 140.799 89.5411 140.794 89.5675L140.302 89.4802ZM140.352 89.738L139.932 90.0094C140.085 90.2467 140.37 90.6544 140.586 90.9527L140.991 90.6599L141.396 90.367C141.184 90.0728 140.911 89.6818 140.772 89.4666L140.352 89.738ZM140.991 90.6599L140.586 90.9528C140.773 91.211 140.994 91.4343 141.234 91.6256L141.546 91.2351L141.858 90.8445C141.679 90.7017 141.523 90.5424 141.396 90.3669L140.991 90.6599ZM141.546 91.2351L141.234 91.6257L143.517 93.4499L143.829 93.0593L144.141 92.6687L141.858 90.8444L141.546 91.2351ZM143.829 93.0593L143.517 93.4499C143.817 93.6893 144.248 93.805 144.652 93.6894L144.515 93.2087L144.377 92.728C144.319 92.7447 144.217 92.7293 144.141 92.6687L143.829 93.0593ZM144.515 93.2087L144.652 93.6893C145.047 93.5763 145.227 93.2691 145.32 93.0457L144.859 92.8523L144.398 92.6588C144.387 92.6869 144.377 92.7069 144.368 92.721C144.36 92.7349 144.355 92.7406 144.354 92.7416C144.354 92.7421 144.357 92.7388 144.363 92.7347C144.37 92.7304 144.375 92.7285 144.377 92.7281L144.515 93.2087ZM144.859 92.8523L145.32 93.0457C146.087 91.2181 147.648 89.8076 149.251 88.6114L148.952 88.2107L148.653 87.8099C147.024 89.0258 145.275 90.5704 144.398 92.6588L144.859 92.8523ZM148.952 88.2107L149.211 88.6386C149.531 88.4452 149.762 88.1563 149.925 87.9581L149.539 87.6403L149.153 87.3226C148.968 87.5469 148.842 87.6931 148.694 87.7827L148.952 88.2107ZM149.539 87.6403L149.925 87.9581C150.12 87.7218 150.329 87.5808 150.587 87.4543C150.722 87.3883 150.865 87.3286 151.034 87.2579C151.198 87.189 151.383 87.1114 151.577 87.0167L151.358 86.5671L151.14 86.1175C150.973 86.1986 150.813 86.2663 150.647 86.3357C150.486 86.4033 150.314 86.4748 150.148 86.5563C149.803 86.725 149.464 86.9448 149.153 87.3226L149.539 87.6403ZM151.358 86.5671L151.579 87.016C151.82 86.8974 152.058 86.7525 152.245 86.6478C152.445 86.5359 152.627 86.4456 152.827 86.3835L152.679 85.906L152.53 85.4285C152.232 85.5213 151.979 85.6507 151.757 85.7752C151.522 85.9069 151.349 86.015 151.138 86.1182L151.358 86.5671ZM152.679 85.906L152.824 86.3843C155.602 85.5396 158.254 85.5386 160.164 87.6631L160.536 87.3288L160.908 86.9945C158.603 84.4302 155.439 84.5442 152.533 85.4276L152.679 85.906ZM160.536 87.3288L160.182 87.682C160.199 87.6988 160.221 87.726 160.254 87.7747C160.268 87.7958 160.34 87.9067 160.372 87.9522L160.781 87.6657L161.191 87.3792C161.148 87.3178 161.147 87.3101 161.082 87.2145C161.036 87.1464 160.973 87.0586 160.89 86.9756L160.536 87.3288ZM160.781 87.6657L160.375 87.9572C161.639 89.7189 161.686 91.3658 161.043 92.7913C160.384 94.2512 158.972 95.5362 157.221 96.4435L157.451 96.8874L157.681 97.3313C159.556 96.36 161.173 94.9341 161.954 93.2027C162.751 91.437 162.65 89.4124 161.188 87.3742L160.781 87.6657ZM157.451 96.8874L157.22 96.444C155.208 97.4919 152.97 97.8073 150.691 97.6937L150.666 98.1931L150.641 98.6925C153.041 98.8121 155.469 98.4837 157.682 97.3309L157.451 96.8874ZM150.666 98.1931L150.691 97.6937C149.464 97.6326 148.306 97.949 147.523 98.6459C146.713 99.366 146.367 100.44 146.704 101.708L147.188 101.58L147.671 101.451C147.423 100.521 147.68 99.8449 148.187 99.393C148.722 98.9179 149.595 98.6403 150.641 98.6925L150.666 98.1931ZM147.188 101.58L146.704 101.708C146.725 101.786 146.744 101.858 146.761 101.928L147.247 101.81L147.733 101.692C147.713 101.609 147.691 101.527 147.671 101.451L147.188 101.58ZM147.247 101.81L146.761 101.928C146.845 102.274 147.027 102.578 147.138 102.787L147.58 102.553L148.022 102.32C147.875 102.041 147.779 101.883 147.733 101.692L147.247 101.81ZM147.58 102.553L147.131 102.773C147.202 102.918 147.268 103.087 147.34 103.271C147.404 103.435 147.485 103.64 147.575 103.788L148.003 103.53L148.431 103.272C148.394 103.21 148.345 103.093 148.27 102.904C148.204 102.736 148.122 102.522 148.029 102.333L147.58 102.553ZM148.003 103.53L147.569 103.778C147.675 103.964 147.862 104.222 148.036 104.461C148.221 104.714 148.405 104.964 148.54 105.169L148.958 104.895L149.377 104.622C149.225 104.389 149.021 104.113 148.844 103.871C148.657 103.615 148.509 103.409 148.437 103.282L148.003 103.53ZM148.958 104.895L148.564 105.203C151.483 108.931 155.349 111.497 159.849 113.011L160.009 112.537L160.168 112.063C155.833 110.604 152.138 108.145 149.352 104.587L148.958 104.895ZM160.009 112.537L159.849 113.011C159.937 113.04 160.024 113.058 160.086 113.071C160.159 113.085 160.197 113.092 160.238 113.102L160.359 112.617L160.481 112.132C160.408 112.114 160.327 112.099 160.28 112.09C160.223 112.078 160.191 112.07 160.168 112.063L160.009 112.537ZM160.359 112.617L160.237 113.102C160.477 113.162 160.732 113.139 160.953 113.001C161.165 112.869 161.292 112.665 161.362 112.465L160.89 112.3L160.417 112.136C160.4 112.187 160.39 112.174 160.424 112.153C160.44 112.142 160.459 112.136 160.475 112.134C160.49 112.132 160.493 112.135 160.481 112.132L160.359 112.617ZM160.89 112.3L161.362 112.465C162.398 109.487 164.648 106.711 167.442 105.013C170.23 103.318 173.518 102.717 176.669 103.997L176.857 103.534L177.046 103.071C173.538 101.646 169.917 102.338 166.923 104.158C163.935 105.974 161.531 108.934 160.417 112.136L160.89 112.3ZM176.857 103.534L176.671 103.998C177.392 104.288 178.013 104.901 178.541 105.574L178.935 105.265L179.328 104.957C178.766 104.241 178.013 103.46 177.044 103.07L176.857 103.534ZM178.935 105.265L178.546 105.58C178.766 105.852 178.811 105.894 178.973 106.189L179.411 105.947L179.849 105.705C179.64 105.326 179.545 105.225 179.323 104.951L178.935 105.265ZM179.411 105.947L178.971 106.184C179.806 107.733 179.916 109.101 179.543 110.332C179.165 111.579 178.271 112.745 176.99 113.831L177.314 114.213L177.637 114.594C179 113.437 180.045 112.12 180.5 110.622C180.96 109.105 180.797 107.463 179.851 105.71L179.411 105.947ZM177.314 114.213L176.987 113.834C176.962 113.855 176.931 113.876 176.873 113.913C176.824 113.944 176.737 113.996 176.657 114.058L176.964 114.453L177.271 114.848C177.3 114.825 177.333 114.805 177.403 114.761C177.464 114.723 177.553 114.667 177.64 114.591L177.314 114.213ZM176.964 114.453L176.669 114.049C173.473 116.379 169.766 116.773 165.758 116.393L165.711 116.89L165.664 117.388C169.784 117.779 173.78 117.393 177.258 114.857L176.964 114.453ZM165.711 116.89L165.754 116.392C164.909 116.319 164.065 116.504 163.436 116.964C162.789 117.437 162.401 118.183 162.489 119.117L162.986 119.07L163.484 119.023C163.431 118.454 163.653 118.045 164.027 117.771C164.42 117.484 165.009 117.331 165.668 117.388L165.711 116.89ZM162.986 119.07L162.489 119.117C162.655 120.881 163.198 122.7 163.867 124.141L164.32 123.93L164.774 123.72C164.147 122.371 163.639 120.661 163.484 119.023L162.986 119.07ZM164.32 123.93L163.867 124.141C163.936 124.29 164.018 124.427 164.107 124.554L164.517 124.267L164.926 123.981C164.866 123.894 164.814 123.807 164.774 123.72L164.32 123.93ZM164.517 124.267L164.121 124.573C164.237 124.723 164.361 124.877 164.443 125.028L164.882 124.789L165.321 124.549C165.191 124.311 165.006 124.083 164.912 123.962L164.517 124.267ZM164.882 124.789L164.436 125.014C164.501 125.143 164.619 125.294 164.694 125.393C164.787 125.515 164.868 125.624 164.927 125.725L165.358 125.472L165.79 125.22C165.696 125.059 165.578 124.904 165.49 124.788C165.443 124.726 165.406 124.677 165.374 124.633C165.359 124.612 165.348 124.595 165.339 124.582C165.331 124.568 165.328 124.563 165.328 124.563L164.882 124.789ZM165.358 125.472L164.928 125.727C164.997 125.844 165.093 125.975 165.176 126.088C165.265 126.21 165.348 126.323 165.418 126.429L165.836 126.154L166.254 125.879C166.167 125.747 166.065 125.61 165.982 125.497C165.893 125.374 165.828 125.284 165.789 125.218L165.358 125.472ZM165.836 126.154L165.426 126.441C165.609 126.701 165.816 126.935 166.021 127.147L166.381 126.8L166.74 126.452C166.554 126.259 166.386 126.068 166.246 125.867L165.836 126.154ZM166.381 126.8L166.021 127.147C166.345 127.481 166.643 127.844 166.931 128.223L167.329 127.921L167.727 127.618C167.424 127.219 167.1 126.824 166.74 126.452L166.381 126.8ZM167.329 127.921L166.919 128.207C166.957 128.261 166.982 128.303 167.033 128.379C167.075 128.443 167.132 128.526 167.202 128.603L167.573 128.268L167.944 127.933C167.926 127.913 167.903 127.882 167.867 127.827C167.838 127.784 167.785 127.7 167.739 127.634L167.329 127.921ZM167.573 128.268L167.236 128.637C167.923 129.267 168.636 129.855 169.372 130.407L169.672 130.007L169.972 129.606C169.261 129.074 168.574 128.507 167.911 127.9L167.573 128.268ZM169.672 130.007L169.372 130.407C171.993 132.37 175.455 131.355 177.787 129.407L177.466 129.023L177.145 128.64C174.972 130.456 172.049 131.162 169.972 129.606L169.672 130.007ZM177.466 129.023L177.787 129.407C179.309 128.134 181.013 127.101 182.885 126.422L182.714 125.952L182.543 125.482C180.549 126.206 178.745 127.302 177.145 128.64L177.466 129.023ZM182.714 125.952L182.885 126.422C184.633 125.784 186.676 125.389 188.604 125.527C190.528 125.664 192.304 126.327 193.588 127.771L193.962 127.438L194.335 127.106C192.831 125.416 190.78 124.68 188.675 124.529C186.575 124.379 184.388 124.808 182.542 125.482L182.714 125.952ZM193.962 127.438L193.589 127.771C194.776 129.103 195.201 130.533 195.044 131.898C194.886 133.274 194.128 134.643 192.841 135.819L193.179 136.188L193.516 136.557C194.939 135.257 195.846 133.679 196.037 132.013C196.231 130.336 195.693 128.629 194.335 127.106L193.962 127.438ZM193.179 136.188L192.852 135.81C192.828 135.831 192.797 135.852 192.738 135.889C192.689 135.919 192.602 135.971 192.522 136.034L192.829 136.428L193.136 136.823C193.166 136.8 193.198 136.78 193.268 136.736C193.329 136.698 193.418 136.642 193.506 136.567L193.179 136.188ZM192.829 136.428L192.524 136.033C190.454 137.629 188.069 138.164 185.547 138.163C183.013 138.162 180.382 137.622 177.835 137.096L177.733 137.586L177.632 138.075C180.16 138.597 182.893 139.162 185.547 139.163C188.212 139.164 190.837 138.596 193.135 136.824L192.829 136.428ZM177.733 137.586L177.835 137.096C177.429 137.012 177.072 136.853 176.618 136.675C176.179 136.502 175.678 136.325 175.076 136.283L175.041 136.782L175.006 137.281C175.451 137.312 175.836 137.442 176.252 137.605C176.652 137.763 177.119 137.969 177.632 138.075L177.733 137.586ZM175.041 136.782L175.13 136.29C174.714 136.215 174.331 136.424 174.164 136.808L174.623 137.007L175.082 137.205C175.079 137.211 175.065 137.237 175.028 137.257C174.99 137.277 174.96 137.275 174.952 137.274L175.041 136.782ZM174.623 137.007L174.164 136.808C172.56 140.513 171.673 143.804 171.91 147.959L172.409 147.93L172.908 147.902C172.683 143.951 173.517 140.82 175.082 137.205L174.623 137.007ZM172.409 147.93L171.91 147.951C171.915 148.082 171.899 148.41 172.041 148.707L172.492 148.492L172.944 148.277C172.934 148.257 172.925 148.228 172.919 148.17C172.916 148.139 172.915 148.105 172.913 148.061C172.912 148.023 172.911 147.961 172.909 147.91L172.409 147.93ZM172.492 148.492L172.041 148.707C172.322 149.295 172.5 149.909 172.738 150.586C172.968 151.241 173.246 151.929 173.717 152.539L174.112 152.233L174.508 151.927C174.139 151.45 173.904 150.888 173.681 150.255C173.467 149.643 173.255 148.929 172.943 148.277L172.492 148.492ZM174.112 152.233L173.717 152.539C173.89 152.763 174.144 152.961 174.486 153.019L174.569 152.526L174.653 152.033C174.618 152.027 174.568 152.006 174.508 151.927L174.112 152.233ZM174.569 152.526L174.486 153.019C174.8 153.072 175.102 153.007 175.343 152.912L175.159 152.447L174.975 151.982C174.845 152.034 174.733 152.047 174.653 152.033L174.569 152.526ZM175.159 152.447L175.343 152.912C177.652 151.997 180.735 151.382 183.688 151.467C186.651 151.552 189.391 152.339 191.118 154.126L191.478 153.779L191.837 153.432C189.85 151.374 186.799 150.556 183.716 150.467C180.623 150.378 177.404 151.019 174.975 151.982L175.159 152.447ZM191.478 153.779L191.123 154.132C191.127 154.136 191.139 154.149 191.168 154.196C191.187 154.226 191.239 154.315 191.286 154.381L191.694 154.092L192.103 153.804C192.077 153.768 192.065 153.744 192.016 153.666C191.977 153.604 191.917 153.512 191.832 153.426L191.478 153.779ZM191.694 154.092L191.286 154.381C191.131 154.162 191.201 153.92 191.304 153.791C191.41 153.661 191.648 153.533 191.904 153.66L191.682 154.108L191.459 154.556C191.725 154.688 191.972 154.557 192.083 154.419C192.192 154.284 192.264 154.031 192.102 153.804L191.694 154.092ZM191.682 154.108L191.895 153.656C191.648 153.54 191.393 153.643 191.267 153.816C191.145 153.984 191.124 154.234 191.276 154.43L191.671 154.123L192.066 153.816C192.211 154.003 192.192 154.245 192.075 154.405C191.953 154.572 191.706 154.672 191.469 154.56L191.682 154.108ZM191.671 154.123L191.276 154.43C192.026 155.395 192.381 156.339 192.382 157.262C192.384 158.186 192.031 159.152 191.248 160.162L191.644 160.468L192.039 160.775C192.922 159.634 193.384 158.458 193.382 157.261C193.381 156.065 192.917 154.911 192.066 153.816L191.671 154.123ZM191.644 160.468L191.249 160.161C191.217 160.202 191.174 160.232 191.098 160.262C191.049 160.282 191.026 160.288 190.956 160.313C190.929 160.323 190.889 160.338 190.849 160.357C190.811 160.376 190.748 160.409 190.686 160.466L191.023 160.835L191.361 161.203C191.321 161.241 191.286 161.257 191.282 161.258C191.277 161.261 191.278 161.26 191.296 161.254C191.317 161.246 191.404 161.217 191.472 161.19C191.631 161.126 191.855 161.011 192.038 160.775L191.644 160.468ZM191.023 160.835L190.678 160.474C190.511 160.633 190.376 160.845 190.32 160.92C190.251 161.012 190.181 161.087 190.043 161.163L190.284 161.601L190.525 162.039C190.819 161.878 190.99 161.693 191.119 161.522C191.26 161.334 191.28 161.282 191.369 161.196L191.023 160.835ZM190.284 161.601L190.037 161.167C187.768 162.459 185.039 162.311 182.325 161.427C179.616 160.545 177 158.954 175.04 157.486L174.74 157.886L174.441 158.287C176.452 159.793 179.166 161.451 182.015 162.378C184.858 163.304 187.915 163.527 190.532 162.036L190.284 161.601ZM174.74 157.886L175.039 157.485C174.92 157.397 174.812 157.286 174.689 157.149C174.578 157.025 174.432 156.854 174.278 156.717C174.116 156.573 173.904 156.429 173.628 156.372C173.346 156.314 173.057 156.358 172.761 156.484L172.956 156.944L173.152 157.404C173.308 157.338 173.388 157.344 173.425 157.351C173.468 157.36 173.525 157.386 173.615 157.466C173.713 157.553 173.804 157.66 173.946 157.817C174.076 157.962 174.239 158.136 174.442 158.288L174.74 157.886ZM172.956 156.944L172.762 156.483C171.89 156.851 171 157.55 170.204 158.339C169.402 159.134 168.664 160.051 168.098 160.893L168.513 161.172L168.928 161.451C169.46 160.659 170.157 159.794 170.908 159.05C171.665 158.299 172.448 157.701 173.15 157.405L172.956 156.944ZM168.513 161.172L168.098 160.893C167.678 161.516 167.441 162.222 167.314 162.923L167.806 163.012L168.298 163.102C168.408 162.495 168.605 161.93 168.928 161.451L168.513 161.172ZM167.806 163.012L167.314 162.923C167.216 163.461 167.117 164.005 167.021 164.538L167.513 164.627L168.005 164.716C168.102 164.179 168.199 163.645 168.298 163.102L167.806 163.012ZM167.513 164.627L167.021 164.538C166.977 164.778 166.889 165.138 166.858 165.448L167.355 165.498L167.853 165.547C167.879 165.284 167.942 165.063 168.005 164.716L167.513 164.627ZM167.355 165.498L166.859 165.439C166.809 165.864 166.726 167.017 166.723 168.049L167.223 168.05L167.723 168.052C167.726 167.055 167.807 165.94 167.852 165.556L167.355 165.498ZM167.223 168.05L166.723 168.049C166.721 168.778 166.985 169.387 167.44 169.845C167.887 170.294 168.493 170.572 169.149 170.705L169.248 170.215L169.347 169.724C168.832 169.62 168.423 169.415 168.149 169.139C167.884 168.873 167.721 168.519 167.723 168.052L167.223 168.05ZM169.248 170.215L169.149 170.705C173.357 171.554 177.162 172.45 179.858 175.888L180.251 175.58L180.644 175.271C177.694 171.509 173.527 170.568 169.347 169.724L169.248 170.215ZM180.251 175.58L179.855 175.885C180.072 176.166 180.137 176.234 180.295 176.51L180.729 176.261L181.163 176.013C180.963 175.664 180.849 175.537 180.647 175.274L180.251 175.58ZM180.729 176.261L180.297 176.515C180.96 177.645 181.24 178.737 181.126 179.74C181.014 180.734 180.51 181.7 179.495 182.577L179.821 182.956L180.148 183.334C181.324 182.318 181.976 181.133 182.12 179.852C182.264 178.579 181.9 177.271 181.16 176.008L180.729 176.261ZM179.821 182.956L179.514 182.561C179.432 182.625 179.339 182.682 179.216 182.756L179.475 183.184L179.733 183.612C179.848 183.543 179.992 183.457 180.128 183.351L179.821 182.956ZM179.475 183.184L179.205 182.763C177.452 183.888 175.253 183.817 173.395 182.794L173.153 183.232L172.912 183.67C175.037 184.84 177.634 184.959 179.745 183.605L179.475 183.184ZM173.153 183.232L173.403 182.799C173.387 182.79 173.388 182.79 173.384 182.788L173.128 183.217L172.872 183.647C172.884 183.654 172.902 183.665 172.904 183.665L173.153 183.232ZM173.128 183.217L173.384 182.788C173.062 182.596 172.666 182.328 172.275 182.127L172.047 182.572L171.819 183.017C172.178 183.201 172.469 183.407 172.872 183.647L173.128 183.217ZM172.047 182.572L172.275 182.127C170.841 181.391 169.639 180.052 168.589 178.739L168.198 179.051L167.808 179.364C168.862 180.68 170.177 182.175 171.819 183.017L172.047 182.572ZM168.198 179.051L168.588 178.738C168.078 178.105 167.868 177.751 167.419 177.066L167.001 177.34L166.583 177.614C167.019 178.28 167.261 178.685 167.809 179.365L168.198 179.051ZM167.001 177.34L167.421 177.068C167.329 176.926 167.272 176.784 167.218 176.631C167.174 176.503 167.108 176.285 167.011 176.115L166.577 176.363L166.143 176.611C166.18 176.676 166.203 176.754 166.274 176.96C166.337 177.14 166.425 177.37 166.581 177.611L167.001 177.34ZM166.577 176.363L167.008 176.109C165.922 174.265 163.547 172.963 161.405 173.787L161.584 174.254L161.763 174.72C163.313 174.124 165.225 175.053 166.146 176.617L166.577 176.363ZM161.584 174.254L161.405 173.787C159.83 174.393 158.41 175.278 157.047 176.428L157.369 176.81L157.691 177.192C158.985 176.102 160.31 175.279 161.764 174.72L161.584 174.254ZM157.369 176.81L157.046 176.429C156.617 176.792 155.758 177.653 154.977 178.524C154.584 178.961 154.204 179.411 153.901 179.811C153.614 180.19 153.349 180.585 153.251 180.896L153.728 181.047L154.204 181.197C154.244 181.072 154.403 180.804 154.698 180.414C154.978 180.045 155.339 179.618 155.722 179.191C156.491 178.333 157.315 177.512 157.692 177.192L157.369 176.81ZM153.728 181.047L153.251 180.897C153.202 181.051 153.158 181.214 153.157 181.36C153.156 181.44 153.167 181.558 153.232 181.676C153.303 181.807 153.41 181.886 153.508 181.93C153.591 181.968 153.669 181.98 153.701 181.985C153.719 181.987 153.739 181.99 153.75 181.991C153.763 181.993 153.771 181.994 153.779 181.995C153.803 181.999 153.798 182.001 153.79 181.996L154.057 181.573L154.323 181.15C154.173 181.055 154.031 181.023 153.936 181.008C153.914 181.004 153.894 181.002 153.88 181C153.864 180.998 153.857 180.997 153.851 180.996C153.846 180.995 153.851 180.996 153.86 180.998C153.869 181 153.89 181.006 153.917 181.018C153.945 181.03 153.981 181.051 154.017 181.083C154.055 181.115 154.087 181.155 154.11 181.198C154.156 181.282 154.157 181.352 154.157 181.368C154.157 181.385 154.155 181.383 154.162 181.347C154.17 181.314 154.183 181.266 154.205 181.196L153.728 181.047ZM154.057 181.573L153.793 181.998C155.901 183.308 157.574 184.305 159.049 186.251L159.447 185.949L159.846 185.647C158.241 183.53 156.404 182.443 154.321 181.148L154.057 181.573ZM159.447 185.949L159.049 186.251C160.353 187.972 161.264 190.324 161.276 192.503C161.288 194.657 160.43 196.606 158.221 197.691L158.441 198.139L158.662 198.588C161.287 197.3 162.29 194.948 162.276 192.497C162.263 190.071 161.26 187.514 159.846 185.647L159.447 185.949ZM158.441 198.139L158.222 197.69C156.699 198.434 155.48 198.497 154.433 198.123C153.365 197.742 152.394 196.877 151.438 195.6L151.038 195.9L150.638 196.2C151.645 197.545 152.761 198.588 154.097 199.065C155.453 199.549 156.955 199.421 158.661 198.589L158.441 198.139ZM151.038 195.9L151.43 195.59C151.343 195.48 151.274 195.39 151.219 195.3L150.793 195.562L150.367 195.824C150.457 195.971 150.561 196.102 150.646 196.21L151.038 195.9ZM150.793 195.562L151.212 195.289C150.157 193.676 149.272 191.837 149.345 189.997L148.846 189.977L148.346 189.957C148.26 192.122 149.294 194.182 150.374 195.836L150.793 195.562ZM148.846 189.977L149.345 189.997C149.355 189.752 149.287 189.55 149.234 189.411C149.174 189.251 149.144 189.189 149.125 189.1L148.636 189.202L148.146 189.303C148.186 189.493 148.266 189.677 148.299 189.764C148.339 189.872 148.348 189.919 148.346 189.957L148.846 189.977ZM148.636 189.202L149.124 189.093C148.753 187.437 148.234 185.64 147.349 184.301C146.902 183.626 146.35 183.046 145.657 182.665C144.957 182.28 144.143 182.112 143.206 182.221L143.264 182.717L143.321 183.214C144.064 183.128 144.668 183.262 145.175 183.541C145.688 183.823 146.13 184.27 146.515 184.852C147.292 186.028 147.78 187.669 148.148 189.311L148.636 189.202ZM143.264 182.717L143.206 182.221C141.188 182.455 139.209 182.997 137.34 183.748L137.526 184.212L137.713 184.676C139.51 183.953 141.404 183.437 143.321 183.214L143.264 182.717ZM137.526 184.212L137.296 183.768C137.197 183.82 137.109 183.885 137.053 183.927C136.986 183.977 136.952 184.003 136.919 184.023L137.178 184.451L137.437 184.879C137.522 184.827 137.605 184.763 137.653 184.727C137.712 184.682 137.74 184.664 137.757 184.655L137.526 184.212ZM137.178 184.451L136.956 184.003C136.856 184.053 136.755 184.079 136.667 184.096C136.619 184.105 136.585 184.11 136.538 184.117C136.519 184.12 136.488 184.125 136.457 184.132C136.441 184.136 136.417 184.142 136.39 184.152C136.366 184.16 136.317 184.178 136.264 184.215L136.544 184.629L136.824 185.043C136.776 185.076 136.734 185.091 136.719 185.096C136.7 185.102 136.687 185.106 136.683 185.106C136.677 185.108 136.678 185.107 136.696 185.105C136.723 185.1 136.786 185.091 136.853 185.078C136.993 185.052 137.19 185.003 137.4 184.899L137.178 184.451ZM136.544 184.629L136.302 184.191C136.047 184.332 135.73 184.559 135.433 184.775C135.121 185.001 134.817 185.223 134.554 185.39L134.822 185.812L135.09 186.234C135.386 186.047 135.721 185.801 136.019 185.585C136.331 185.359 136.596 185.172 136.786 185.066L136.544 184.629ZM134.822 185.812L134.56 185.386C134.433 185.464 134.31 185.545 134.19 185.625L134.469 186.041L134.747 186.456C134.861 186.38 134.973 186.307 135.084 186.238L134.822 185.812ZM134.469 186.041L134.19 185.625C133.467 186.11 133.294 186.983 133.479 187.713L133.964 187.59L134.448 187.466C134.337 187.027 134.468 186.643 134.747 186.456L134.469 186.041ZM133.964 187.59L134.179 187.138C134.142 187.121 134.094 187.099 134.044 187.082C134.02 187.075 133.977 187.062 133.924 187.055C133.881 187.051 133.76 187.04 133.627 187.108C133.455 187.195 133.373 187.354 133.354 187.491C133.339 187.598 133.361 187.683 133.37 187.713C133.388 187.777 133.418 187.832 133.424 187.845C133.478 187.951 133.49 187.974 133.492 187.999L133.99 187.958L134.489 187.916C134.467 187.651 134.334 187.428 134.315 187.391C134.303 187.368 134.319 187.394 134.331 187.437C134.336 187.455 134.358 187.531 134.344 187.631C134.326 187.761 134.247 187.915 134.081 187.999C133.954 188.064 133.841 188.053 133.81 188.049C133.768 188.044 133.739 188.035 133.733 188.033C133.719 188.028 133.72 188.027 133.749 188.041L133.964 187.59ZM133.99 187.958L133.492 187.999C133.491 187.992 133.491 187.981 133.491 187.968C133.49 187.955 133.491 187.936 133.493 187.913L133.99 187.969L134.487 188.025C134.493 187.975 134.49 187.934 134.489 187.917L133.99 187.958ZM133.99 187.969L133.493 187.913C133.498 187.876 133.507 187.849 133.511 187.837C133.515 187.826 133.518 187.821 133.513 187.831C133.512 187.833 133.511 187.836 133.509 187.839C133.507 187.843 133.505 187.847 133.503 187.851C133.499 187.86 133.492 187.873 133.486 187.887C133.473 187.915 133.455 187.958 133.441 188.01L133.925 188.137L134.408 188.265C134.402 188.288 134.395 188.303 134.395 188.303C134.395 188.304 134.396 188.302 134.398 188.298C134.399 188.295 134.4 188.293 134.402 188.289C134.404 188.286 134.406 188.281 134.408 188.277C134.417 188.26 134.433 188.227 134.447 188.188C134.463 188.148 134.48 188.092 134.487 188.026L133.99 187.969ZM133.925 188.137L133.441 188.011C133.431 188.05 133.411 188.125 133.401 188.207L133.897 188.266L134.394 188.326C134.394 188.326 134.394 188.322 134.397 188.31C134.4 188.299 134.403 188.285 134.409 188.264L133.925 188.137ZM133.897 188.266L133.401 188.208C133.385 188.343 133.411 188.458 133.424 188.511L133.91 188.396L134.397 188.282C134.394 188.268 134.394 188.267 134.395 188.273C134.395 188.279 134.397 188.298 134.394 188.325L133.897 188.266ZM133.91 188.396L133.424 188.511L140.041 216.601L140.527 216.486L141.014 216.371L134.397 188.282L133.91 188.396ZM140.527 216.486L140.032 216.557C140.097 217.006 140.137 217.457 140.096 217.865C140.055 218.27 139.938 218.594 139.72 218.832L140.089 219.17L140.458 219.507C140.87 219.057 141.037 218.499 141.091 217.965C141.145 217.433 141.089 216.886 141.022 216.415L140.527 216.486ZM140.089 219.17L139.72 218.832C139.61 218.952 139.497 219.086 139.394 219.232L139.804 219.519L140.213 219.806C140.283 219.707 140.365 219.608 140.458 219.507L140.089 219.17ZM139.804 219.519L139.309 219.589C139.344 219.837 139.32 220.094 139.222 220.344L139.688 220.526L140.153 220.708C140.317 220.289 140.357 219.857 140.299 219.449L139.804 219.519ZM139.688 220.526L139.222 220.344L136.336 227.714L136.802 227.896L137.267 228.078L140.153 220.708L139.688 220.526ZM136.802 227.896L136.33 227.731C135.887 228.995 135.381 230.414 134.882 231.632L135.345 231.822L135.807 232.012C136.317 230.767 136.831 229.325 137.274 228.061L136.802 227.896ZM135.345 231.822L134.882 231.632C134.803 231.826 134.706 232.009 134.597 232.182L135.02 232.449L135.442 232.716C135.58 232.499 135.704 232.264 135.807 232.012L135.345 231.822ZM135.02 232.449L134.554 232.267L133.198 235.732L133.664 235.914L134.13 236.096L135.485 232.631L135.02 232.449ZM133.664 235.914L133.199 235.731C132.937 236.399 132.24 236.789 131.534 236.661L131.445 237.153L131.356 237.645C132.532 237.858 133.694 237.208 134.13 236.096L133.664 235.914ZM131.445 237.153L131.534 236.661C130.326 236.442 129.167 237.244 128.948 238.454L129.44 238.543L129.932 238.632C130.053 237.966 130.691 237.524 131.356 237.645L131.445 237.153ZM129.44 238.543L128.948 238.454L128.261 242.247L128.753 242.337L129.245 242.426L129.932 238.632L129.44 238.543ZM128.753 242.337L128.261 242.247C128.113 243.063 127.333 243.604 126.519 243.457L126.43 243.949L126.341 244.441C127.7 244.687 128.999 243.784 129.245 242.426L128.753 242.337ZM126.43 243.949L126.519 243.457L112.221 240.867L112.132 241.359L112.043 241.851L126.341 244.441L126.43 243.949ZM112.132 241.359L112.221 240.867C111.406 240.719 110.864 239.939 111.012 239.124L110.52 239.035L110.028 238.946C109.782 240.304 110.685 241.605 112.043 241.851L112.132 241.359ZM110.52 239.035L111.012 239.124C111.61 235.819 109.416 232.655 106.112 232.057L106.022 232.549L105.933 233.041C108.695 233.541 110.528 236.185 110.028 238.946L110.52 239.035ZM106.022 232.549L106.112 232.057L28.4124 217.985L28.3233 218.477L28.2342 218.969L105.933 233.041L106.022 232.549ZM28.3233 218.477L28.4124 217.985C25.1078 217.387 21.9437 219.582 21.3459 222.886L21.8379 222.975L22.3299 223.064C22.8294 220.303 25.4732 218.469 28.2342 218.969L28.3233 218.477ZM21.8379 222.975L21.3459 222.886C21.1982 223.701 20.4177 224.242 19.6027 224.095L19.5137 224.587L19.4247 225.079C20.7828 225.324 22.0837 224.423 22.3299 223.064L21.8379 222.975ZM19.5137 224.587L19.6028 224.095L5.30497 221.505L5.21585 221.997L5.12674 222.489L19.4246 225.079L19.5137 224.587ZM5.21585 221.997L5.30495 221.505C4.48984 221.357 3.94889 220.577 4.09652 219.762L3.60452 219.673L3.11253 219.583C2.8665 220.942 3.76808 222.243 5.12676 222.489L5.21585 221.997ZM3.60452 219.673L4.09655 219.762L4.93541 215.122L4.44339 215.033L3.95137 214.944L3.1125 219.584L3.60452 219.673ZM4.44339 215.033L4.93545 215.122C5.06936 214.379 4.57641 213.669 3.83395 213.535L3.74515 214.027L3.65635 214.519C3.85511 214.555 3.98723 214.745 3.95134 214.944L4.44339 215.033ZM3.74515 214.027L3.83433 213.535C3.12423 213.406 2.60606 212.79 2.60159 212.068L2.10159 212.071L1.6016 212.074C1.60906 213.277 2.47236 214.304 3.65597 214.519L3.74515 214.027ZM2.10159 212.071L2.60159 212.068L2.49905 195.571L1.99906 195.574L1.49907 195.577L1.6016 212.074L2.10159 212.071ZM1.99906 195.574L2.49905 195.571C2.49868 195.51 2.50266 195.447 2.51028 195.382L2.0137 195.324L1.51713 195.266C1.50551 195.364 1.49841 195.468 1.49906 195.577L1.99906 195.574ZM2.0137 195.324L2.51348 195.309C2.50965 195.182 2.50588 195.057 2.50281 194.931L2.00296 194.943L1.50311 194.955C1.50626 195.084 1.51012 195.213 1.51393 195.339L2.0137 195.324ZM2.00296 194.943L2.50281 194.931C2.47712 193.879 2.79212 192.843 3.37629 191.951L2.95804 191.677L2.53979 191.403C1.8522 192.453 1.47212 193.687 1.50311 194.955L2.00296 194.943ZM2.95804 191.677L3.37629 191.951C8.39643 184.288 13.7987 176.045 18.9661 168.618L18.5557 168.333L18.1453 168.047C12.9685 175.487 7.55842 183.742 2.53979 191.403L2.95804 191.677ZM18.5557 168.333L18.9549 168.634C18.9195 168.681 18.8869 168.698 18.8962 168.692C18.9033 168.688 18.917 168.681 18.9556 168.662C18.9834 168.649 19.0429 168.621 19.097 168.589C19.143 168.561 19.2549 168.491 19.333 168.361L18.9043 168.103L18.4756 167.846C18.5049 167.797 18.5367 167.767 18.553 167.753C18.5698 167.739 18.5816 167.732 18.5818 167.732C18.5825 167.731 18.579 167.733 18.568 167.739C18.5566 167.745 18.5442 167.75 18.5246 167.76C18.492 167.775 18.4329 167.803 18.3753 167.839C18.3198 167.872 18.2306 167.933 18.1564 168.032L18.5557 168.333ZM18.9043 168.103L19.3229 168.377L39.5251 137.454L39.1065 137.18L38.6879 136.907L18.4857 167.83L18.9043 168.103ZM39.1065 137.18L39.5251 137.454C39.6821 137.213 39.7527 136.948 39.8034 136.778L39.3242 136.635L38.8451 136.493C38.7818 136.705 38.749 136.813 38.6879 136.907L39.1065 137.18ZM39.3242 136.635L39.7999 136.79C40.025 136.095 40.3367 135.376 40.675 134.6C41.0099 133.833 41.3688 133.014 41.6676 132.154L41.1953 131.99L40.723 131.826C40.439 132.643 40.0962 133.426 39.7584 134.201C39.4238 134.968 39.0914 135.732 38.8486 136.481L39.3242 136.635ZM41.1953 131.99L41.6846 132.093L42.8926 126.369L42.4034 126.265L41.9141 126.162L40.7061 131.887L41.1953 131.99ZM42.4034 126.265L42.8954 126.354L43.1698 124.836L42.6778 124.747L42.1857 124.658L41.9113 126.176L42.4034 126.265ZM42.6778 124.747L43.1698 124.836C43.1837 124.759 43.2054 124.682 43.2344 124.607L42.7676 124.427L42.3008 124.248C42.2504 124.38 42.2113 124.517 42.1858 124.658L42.6778 124.747ZM42.7676 124.427L43.2344 124.607C43.2774 124.495 43.312 124.378 43.3369 124.26L42.8477 124.157L42.3585 124.054C42.3446 124.119 42.3252 124.185 42.3009 124.248L42.7676 124.427ZM42.8477 124.157L43.3369 124.26L44.9981 116.386L44.5088 116.283L44.0196 116.18L42.3585 124.054L42.8477 124.157ZM44.5088 116.283L44.9981 116.386C45.1663 115.589 45.9411 115.071 46.7421 115.221L46.834 114.729L46.926 114.238C45.5907 113.988 44.2999 114.851 44.0196 116.18L44.5088 116.283ZM46.834 114.729L46.7421 115.221L61.9237 118.061L62.0157 117.569L62.1076 117.078L46.926 114.238L46.834 114.729ZM62.0157 117.569L61.9237 118.061C62.7345 118.212 63.2713 118.991 63.1242 119.803L63.6162 119.892L64.1082 119.981C64.3532 118.628 63.4593 117.331 62.1076 117.078L62.0157 117.569ZM63.6162 119.892L63.1242 119.803L61.1662 130.613L61.6582 130.702L62.1502 130.791L64.1082 119.981L63.6162 119.892ZM61.6582 130.702L61.1662 130.613C60.5265 134.145 62.8717 137.528 66.4041 138.167L66.4932 137.675L66.5823 137.183C63.5934 136.642 61.6089 133.78 62.1502 130.791L61.6582 130.702ZM66.4932 137.675L66.4041 138.167L100.18 144.285L100.27 143.793L100.359 143.301L66.5823 137.183L66.4932 137.675ZM100.27 143.793L100.18 144.285C103.713 144.924 107.095 142.579 107.735 139.047L107.243 138.958L106.751 138.869C106.21 141.858 103.348 143.842 100.359 143.301L100.27 143.793ZM107.243 138.958L107.735 139.047L109.688 128.259L109.196 128.17L108.704 128.081L106.751 138.869L107.243 138.958ZM109.196 128.17L109.688 128.259C109.837 127.441 110.623 126.9 111.44 127.053L111.532 126.561L111.624 126.07C110.262 125.815 108.952 126.716 108.704 128.08L109.196 128.17ZM111.532 126.561L111.44 127.053L125.794 129.742L125.886 129.251L125.978 128.759L111.624 126.07L111.532 126.561ZM125.886 129.251L125.794 129.742C125.954 129.772 126.104 129.827 126.239 129.901L126.48 129.463L126.72 129.024C126.493 128.9 126.244 128.809 125.978 128.759L125.886 129.251ZM126.48 129.463L126.239 129.901C126.961 130.297 127.423 131.301 127.36 132.211L127.858 132.246L128.357 132.28C128.441 131.074 127.858 129.648 126.72 129.024L126.48 129.463ZM127.858 132.246L127.36 132.21C127.227 134.069 126.95 136.037 126.652 138.033C126.354 140.023 126.036 142.044 125.827 143.982L126.324 144.036L126.821 144.089C127.027 142.177 127.341 140.183 127.641 138.181C127.939 136.185 128.221 134.183 128.357 132.281L127.858 132.246ZM126.324 144.036L125.828 143.976C125.819 144.047 125.804 144.122 125.783 144.221C125.763 144.313 125.738 144.43 125.723 144.553L126.22 144.613L126.716 144.673C126.725 144.601 126.74 144.527 126.761 144.428C126.781 144.336 126.806 144.219 126.821 144.096L126.324 144.036ZM126.22 144.613L125.722 144.562C125.632 145.444 125.467 146.484 125.317 147.542C125.169 148.586 125.037 149.646 125.025 150.522L125.525 150.528L126.025 150.534C126.036 149.731 126.159 148.729 126.307 147.682C126.453 146.65 126.624 145.571 126.717 144.664L126.22 144.613ZM125.525 150.528L125.025 150.523C125.015 151.48 125.34 152.569 125.632 153.578C125.936 154.627 126.215 155.614 126.219 156.496L126.719 156.494L127.219 156.492C127.215 155.444 126.887 154.316 126.593 153.299C126.286 152.241 126.017 151.311 126.025 150.533L125.525 150.528ZM126.719 156.494L126.219 156.496C126.22 156.727 126.284 156.92 126.337 157.061C126.398 157.223 126.432 157.292 126.458 157.393L126.942 157.268L127.427 157.144C127.383 156.972 127.305 156.794 127.272 156.708C127.232 156.6 127.219 156.542 127.219 156.492L126.719 156.494ZM126.942 157.268L126.46 157.398C127.331 160.632 128.118 163.965 128.561 167.251L129.057 167.184L129.552 167.117C129.101 163.769 128.301 160.389 127.425 157.138L126.942 157.268ZM129.057 167.184L128.574 167.314C128.998 168.894 129.433 170.435 129.829 172.009L130.314 171.887L130.798 171.765C130.4 170.182 129.959 168.618 129.54 167.055L129.057 167.184ZM130.314 171.887L129.829 172.01C130.667 175.319 131.776 179.198 132.11 182.483L132.607 182.432L133.105 182.382C132.761 179.002 131.622 175.018 130.798 171.765L130.314 171.887ZM132.607 182.432L132.11 182.482C132.111 182.49 132.112 182.496 132.112 182.499C132.112 182.501 132.112 182.502 132.112 182.502C132.112 182.503 132.112 182.502 132.112 182.502C132.112 182.5 132.111 182.496 132.111 182.49C132.11 182.483 132.109 182.474 132.109 182.462L132.608 182.441L133.108 182.421C133.107 182.407 133.106 182.396 133.106 182.388C133.105 182.381 133.104 182.375 133.104 182.372C133.104 182.37 133.103 182.369 133.103 182.369C133.103 182.369 133.103 182.369 133.104 182.37C133.104 182.371 133.104 182.376 133.105 182.383L132.607 182.432ZM132.608 182.441L132.109 182.461C132.118 182.704 132.176 182.978 132.395 183.226L132.77 182.895L133.144 182.564C133.132 182.55 133.127 182.54 133.123 182.527C133.117 182.511 133.11 182.48 133.108 182.422L132.608 182.441ZM132.77 182.895L132.395 183.226C132.463 183.303 132.513 183.413 132.548 183.587L133.038 183.49L133.529 183.393C133.475 183.122 133.372 182.822 133.144 182.564L132.77 182.895ZM133.038 183.49L132.548 183.589C132.615 183.919 132.969 184.106 133.28 183.971L133.081 183.512L132.882 183.054C133.157 182.934 133.469 183.1 133.528 183.391L133.038 183.49ZM133.081 183.512L133.283 183.97C133.28 183.971 133.276 183.973 133.279 183.972C133.28 183.971 133.287 183.968 133.295 183.965C133.31 183.958 133.343 183.941 133.381 183.914L133.087 183.509L132.793 183.105C132.829 183.079 132.86 183.064 132.874 183.058C132.881 183.054 132.886 183.052 132.886 183.052C132.889 183.051 132.883 183.053 132.879 183.055L133.081 183.512ZM133.087 183.509L133.381 183.914C133.636 183.728 133.883 183.541 134.144 183.388L133.892 182.957L133.639 182.525C133.323 182.71 133.024 182.936 132.793 183.105L133.087 183.509ZM133.892 182.957L134.147 183.386C136.413 182.039 137.334 181.306 139.93 180.633L139.805 180.149L139.679 179.665C136.914 180.381 135.857 181.206 133.636 182.527L133.892 182.957ZM139.805 180.149L139.931 180.633C144.005 179.571 146.006 180.148 150.176 180.465L150.214 179.967L150.252 179.468C146.197 179.16 143.96 178.549 139.679 179.665L139.805 180.149ZM150.214 179.967L150.175 180.465C150.346 180.478 150.531 180.493 150.698 180.488C150.869 180.482 151.07 180.455 151.262 180.353L151.027 179.912L150.792 179.47C150.793 179.47 150.766 179.485 150.666 179.488C150.564 179.491 150.438 179.482 150.252 179.468L150.214 179.967ZM151.027 179.912L151.262 180.353C151.662 180.141 151.827 179.76 151.921 179.492C151.966 179.364 152.014 179.201 152.047 179.1C152.085 178.981 152.119 178.892 152.157 178.821L151.717 178.585L151.276 178.348C151.195 178.5 151.139 178.658 151.095 178.792C151.046 178.946 151.02 179.041 150.978 179.16C150.899 179.385 150.839 179.446 150.792 179.471L151.027 179.912ZM151.717 178.585L152.157 178.821C153.712 175.927 156.369 173.842 159.387 172.423L159.174 171.97L158.961 171.518C155.818 172.997 152.963 175.208 151.276 178.348L151.717 178.585ZM159.174 171.97L159.387 172.423C162.27 171.067 164.246 168.218 164.661 165.079L164.165 165.013L163.669 164.948C163.296 167.769 161.519 170.315 158.961 171.518L159.174 171.97ZM164.165 165.013L164.661 165.079C165.052 162.12 166.153 159.351 168.26 157.08L167.894 156.74L167.527 156.4C165.254 158.85 164.083 161.825 163.669 164.948L164.165 165.013ZM167.894 156.74L168.257 157.083C168.233 157.109 168.226 157.105 168.29 157.07C168.346 157.039 168.409 157.008 168.504 156.959C168.672 156.873 168.917 156.743 169.121 156.556L168.782 156.188L168.444 155.82C168.351 155.906 168.217 155.983 168.048 156.069C167.974 156.107 167.879 156.154 167.803 156.196C167.734 156.235 167.62 156.301 167.53 156.397L167.894 156.74ZM168.782 156.188L169.109 156.567C169.133 156.546 169.164 156.524 169.223 156.488C169.272 156.457 169.359 156.405 169.439 156.343L169.132 155.948L168.825 155.553C168.795 155.576 168.763 155.596 168.693 155.64C168.632 155.678 168.543 155.734 168.455 155.81L168.782 156.188ZM169.132 155.948L169.454 156.331C169.619 156.192 169.761 156.025 169.881 155.876C170.011 155.714 170.109 155.583 170.227 155.448C170.455 155.187 170.641 155.052 170.859 155.021L170.789 154.526L170.72 154.031C170.136 154.113 169.747 154.476 169.473 154.791C169.34 154.944 169.205 155.121 169.102 155.248C168.989 155.389 168.898 155.492 168.81 155.565L169.132 155.948ZM170.789 154.526L170.859 155.021C171.164 154.978 171.588 154.833 171.855 154.515L171.473 154.193L171.09 153.871C171.043 153.927 170.897 154.006 170.719 154.031L170.789 154.526ZM171.473 154.193L171.856 154.515C171.999 154.344 172.057 154.137 172.027 153.928C172.001 153.749 171.916 153.605 171.855 153.515L171.441 153.797L171.028 154.078C171.042 154.098 171.046 154.107 171.047 154.109C171.048 154.11 171.041 154.096 171.037 154.069C171.033 154.04 171.033 154.001 171.045 153.958C171.058 153.916 171.077 153.887 171.09 153.872L171.473 154.193ZM171.441 153.797L171.855 153.515C168.601 148.744 169.255 142.476 171.616 137.208L171.16 137.004L170.704 136.799C168.274 142.221 167.496 148.898 171.028 154.078L171.441 153.797ZM171.16 137.004L171.616 137.208C171.871 136.64 171.997 136.036 171.888 135.461C171.775 134.868 171.422 134.364 170.834 134.008L170.574 134.435L170.315 134.863C170.682 135.085 170.85 135.357 170.906 135.648C170.965 135.958 170.906 136.348 170.704 136.799L171.16 137.004ZM170.574 134.435L170.834 134.008C170.368 133.725 169.85 133.429 169.414 133.174C168.962 132.911 168.621 132.706 168.467 132.591L168.166 132.99L167.865 133.389C168.077 133.549 168.48 133.788 168.91 134.039C169.356 134.298 169.859 134.587 170.315 134.863L170.574 134.435ZM168.166 132.99L168.467 132.591C168.213 132.399 167.938 132.136 167.638 131.838C167.348 131.549 167.03 131.223 166.72 130.943L166.385 131.313L166.049 131.684C166.336 131.944 166.625 132.241 166.933 132.547C167.232 132.845 167.55 133.151 167.865 133.389L168.166 132.99ZM166.385 131.313L166.719 130.942C165.807 130.12 165.523 129.722 164.749 128.833L164.372 129.161L163.995 129.489C164.742 130.348 165.079 130.81 166.05 131.685L166.385 131.313ZM164.372 129.161L164.75 128.834C164.582 128.639 164.393 128.435 164.208 128.233C164.02 128.028 163.832 127.821 163.653 127.607C163.291 127.175 162.987 126.742 162.812 126.297L162.347 126.48L161.882 126.664C162.115 127.256 162.499 127.787 162.886 128.249C163.081 128.482 163.282 128.703 163.471 128.909C163.662 129.118 163.838 129.307 163.994 129.488L164.372 129.161ZM162.347 126.48L162.812 126.297C162.699 126.011 162.559 125.74 162.402 125.486L161.977 125.748L161.551 126.01C161.681 126.222 161.793 126.44 161.882 126.664L162.347 126.48ZM161.977 125.748L162.39 125.466C161.85 124.675 161.337 123.51 160.941 122.275C160.546 121.042 160.28 119.78 160.216 118.809L159.717 118.842L159.218 118.876C159.289 119.951 159.577 121.295 159.989 122.58C160.4 123.863 160.949 125.128 161.563 126.029L161.977 125.748ZM159.717 118.842L160.216 118.81C160.095 116.957 158.981 115.117 157.21 114.381L157.018 114.842L156.826 115.304C158.191 115.872 159.118 117.338 159.218 118.875L159.717 118.842ZM157.018 114.842L157.21 114.381C154.188 113.124 151.449 111.281 149.09 108.983L148.741 109.342L148.392 109.7C150.837 112.081 153.681 113.996 156.826 115.304L157.018 114.842ZM148.741 109.342L149.09 108.983C147.192 107.136 145.884 105.44 144.911 103.016L144.447 103.202L143.983 103.388C145.023 105.978 146.426 107.787 148.393 109.7L148.741 109.342ZM144.447 103.202L144.912 103.017C144.179 101.176 143.616 99.3503 143.875 97.4935L143.38 97.4245L142.885 97.3555C142.587 99.4893 143.242 101.526 143.983 103.387L144.447 103.202ZM143.38 97.4245L143.875 97.4936C143.887 97.4082 143.908 97.3115 143.935 97.1756C143.96 97.0511 143.989 96.8998 144.002 96.7486C144.024 96.4922 144.025 95.98 143.567 95.7083L143.312 96.1384L143.057 96.5684C142.961 96.5119 143.025 96.4339 143.005 96.6624C142.998 96.7535 142.979 96.8573 142.955 96.9795C142.932 97.0903 142.902 97.2319 142.885 97.3555L143.38 97.4245ZM143.312 96.1384L143.58 95.7165C143.456 95.6376 143.325 95.6143 143.256 95.6045C143.179 95.5934 143.098 95.5895 143.047 95.5869C142.985 95.5836 142.952 95.5815 142.928 95.5781C142.896 95.5735 142.939 95.5737 143 95.6126L142.73 96.0339L142.461 96.4552C142.585 96.5345 142.717 96.558 142.786 96.5679C142.863 96.579 142.944 96.5829 142.995 96.5855C143.057 96.5888 143.09 96.5909 143.114 96.5943C143.146 96.5989 143.104 96.5988 143.043 96.5602L143.312 96.1384ZM142.73 96.0339L143.014 95.6222C141.551 94.6141 140.757 94.3044 139.699 93.0069L139.312 93.323L138.924 93.639C140.102 95.0827 141.104 95.5204 142.447 96.4456L142.73 96.0339ZM139.312 93.323L139.665 92.9697C139.653 92.9577 139.636 92.9366 139.602 92.8837C139.575 92.8425 139.52 92.754 139.459 92.6773L139.066 92.987L138.674 93.2968C138.699 93.3289 138.717 93.3586 138.766 93.4333C138.808 93.4961 138.87 93.5886 138.958 93.6762L139.312 93.323ZM139.066 92.987L139.476 92.7005C139.367 92.545 139.312 92.4803 139.248 92.3764L138.822 92.6384L138.396 92.9004C138.478 93.0331 138.597 93.1883 138.657 93.2736L139.066 92.987ZM138.822 92.6384L139.239 92.3617C136.694 88.5316 136.285 84.5329 137.394 80.0584L136.908 79.9382L136.423 79.818C135.26 84.514 135.679 88.8112 138.406 92.9151L138.822 92.6384ZM136.908 79.9382L137.394 80.0584C137.481 79.7043 137.257 79.334 136.883 79.2656L136.793 79.7575L136.703 80.2494C136.495 80.2114 136.376 80.0082 136.423 79.818L136.908 79.9382ZM136.793 79.7575L136.883 79.2657C137.075 79.3009 137.202 79.4847 137.168 79.6761L136.676 79.5886L136.184 79.501C136.121 79.8506 136.353 80.1852 136.703 80.2493L136.793 79.7575ZM136.676 79.5886L137.168 79.6763C137.178 79.6202 137.184 79.5856 137.192 79.539L136.7 79.4499L136.208 79.3608C136.201 79.4029 136.19 79.4628 136.184 79.5009L136.676 79.5886ZM136.7 79.4499L137.192 79.5401C137.181 79.6029 137.13 79.6376 137.084 79.6404L137.054 79.1413L137.024 78.6422C136.628 78.6661 136.283 78.9531 136.208 79.3598L136.7 79.4499ZM137.054 79.1413L137.084 79.6404C137.341 79.625 137.596 79.6 137.848 79.568L137.785 79.072L137.722 78.5759C137.489 78.6055 137.256 78.6283 137.024 78.6422L137.054 79.1413ZM152.853 184.484L153.128 184.067C152.859 183.889 152.403 183.778 152.022 184.069L152.325 184.467L152.629 184.864C152.615 184.875 152.599 184.882 152.583 184.886C152.569 184.89 152.559 184.89 152.555 184.89C152.551 184.89 152.552 184.89 152.557 184.891C152.563 184.893 152.57 184.896 152.577 184.901L152.853 184.484ZM152.325 184.467L152.022 184.069C151.826 184.218 151.776 184.405 151.752 184.491L152.234 184.624L152.716 184.757C152.721 184.741 152.722 184.737 152.722 184.738C152.721 184.739 152.717 184.751 152.709 184.768C152.699 184.785 152.687 184.804 152.671 184.823C152.655 184.842 152.64 184.855 152.629 184.864L152.325 184.467ZM152.234 184.624L151.752 184.491C151.539 185.266 151.427 186.026 151.381 186.779L151.88 186.809L152.379 186.84C152.421 186.146 152.524 185.456 152.716 184.757L152.234 184.624ZM151.88 186.809L151.381 186.779C151.306 188.006 151.355 189.463 151.626 190.855C151.896 192.239 152.395 193.605 153.255 194.604L153.634 194.278L154.013 193.952C153.313 193.138 152.861 191.963 152.608 190.663C152.356 189.371 152.308 188 152.379 186.84L151.88 186.809ZM153.634 194.278L153.255 194.604C153.777 195.211 154.519 195.692 155.58 195.895L155.674 195.404L155.768 194.913C154.928 194.752 154.387 194.387 154.013 193.952L153.634 194.278ZM155.674 195.404L155.58 195.895C156.481 196.068 157.569 195.898 158.25 195.101L157.869 194.776L157.489 194.452C157.121 194.883 156.454 195.044 155.768 194.913L155.674 195.404ZM157.869 194.776L158.25 195.101C159.233 193.947 159.289 192.247 159.038 190.898L158.547 190.989L158.055 191.08C158.287 192.326 158.177 193.644 157.489 194.452L157.869 194.776ZM158.547 190.989L159.038 190.898C158.955 190.448 158.789 190.028 158.572 189.644L158.137 189.89L157.702 190.136C157.872 190.438 157.995 190.755 158.055 191.08L158.547 190.989ZM158.137 189.89L158.572 189.644C158.102 188.813 157.445 187.849 156.737 186.972C156.033 186.101 155.256 185.286 154.541 184.776L154.251 185.183L153.961 185.59C154.567 186.023 155.278 186.757 155.959 187.601C156.636 188.439 157.261 189.357 157.702 190.136L158.137 189.89ZM154.251 185.183L154.545 184.779C154.312 184.609 154.014 184.485 153.779 184.385C153.519 184.275 153.303 184.182 153.128 184.067L152.853 184.484L152.577 184.901C152.842 185.076 153.148 185.204 153.388 185.306C153.654 185.418 153.835 185.499 153.957 185.587L154.251 185.183ZM133.987 187.603L133.694 188.008C133.678 187.997 133.65 187.975 133.621 187.94C133.596 187.912 133.539 187.839 133.515 187.725C133.486 187.59 133.511 187.388 133.681 187.244C133.82 187.127 133.971 187.124 134.038 187.13C134.304 187.152 134.42 187.355 134.448 187.466L133.964 187.59L133.479 187.713C133.521 187.877 133.671 188.103 133.956 188.126C134.028 188.132 134.183 188.129 134.325 188.009C134.497 187.864 134.523 187.659 134.493 187.519C134.468 187.401 134.408 187.322 134.378 187.288C134.343 187.247 134.307 187.218 134.281 187.198L133.987 187.603ZM133.964 187.59L133.749 188.041C133.741 188.037 133.733 188.033 133.725 188.028C133.717 188.023 133.706 188.017 133.695 188.009L133.987 187.603L134.28 187.198C134.245 187.172 134.209 187.153 134.179 187.138L133.964 187.59ZM169.172 173.282L169.222 172.784C168.968 172.759 168.691 172.791 168.465 172.965C168.23 173.146 168.147 173.404 168.132 173.623C168.105 174.026 168.29 174.474 168.491 174.819L168.923 174.567L169.355 174.315C169.276 174.179 169.214 174.046 169.176 173.929C169.135 173.807 169.128 173.727 169.13 173.69C169.132 173.659 169.136 173.711 169.075 173.757C169.023 173.798 169.007 173.768 169.121 173.779L169.172 173.282ZM168.923 174.567L168.491 174.819C169.918 177.268 171.694 179.364 174.166 180.917L174.432 180.494L174.698 180.071C172.396 178.624 170.724 176.664 169.355 174.315L168.923 174.567ZM174.432 180.494L174.166 180.917C174.679 181.24 175.276 181.494 175.929 181.551L175.973 181.053L176.017 180.555C175.567 180.516 175.121 180.337 174.698 180.07L174.432 180.494ZM175.973 181.053L175.929 181.552C176.739 181.623 177.467 181.496 178.022 181.098C178.59 180.691 178.899 180.058 178.975 179.288L178.478 179.239L177.98 179.189C177.925 179.744 177.721 180.083 177.44 180.285C177.146 180.496 176.687 180.614 176.016 180.555L175.973 181.053ZM178.478 179.239L178.975 179.288C179.081 178.22 178.522 177.291 177.911 176.606L177.538 176.939L177.165 177.272C177.706 177.879 178.045 178.536 177.98 179.19L178.478 179.239ZM177.538 176.939L177.911 176.606C177.811 176.494 177.719 176.392 177.648 176.314C177.613 176.275 177.582 176.242 177.557 176.215C177.543 176.2 177.505 176.159 177.471 176.13L177.149 176.513L176.828 176.897C176.811 176.882 176.801 176.872 176.809 176.88C176.813 176.883 176.819 176.89 176.829 176.9C176.848 176.921 176.875 176.95 176.909 176.987C176.976 177.061 177.065 177.16 177.165 177.272L177.538 176.939ZM177.149 176.513L177.473 176.132C176.83 175.585 176.119 175.182 175.41 174.833C175.056 174.659 174.696 174.495 174.346 174.336C173.993 174.175 173.648 174.018 173.311 173.851L173.089 174.299L172.867 174.747C173.221 174.922 173.58 175.086 173.931 175.246C174.285 175.407 174.63 175.564 174.968 175.73C175.645 176.063 176.272 176.424 176.826 176.894L177.149 176.513ZM173.089 174.299L173.311 173.851C172.714 173.555 172.068 173.284 171.374 173.142L171.273 173.632L171.173 174.121C171.747 174.239 172.304 174.468 172.867 174.747L173.089 174.299ZM171.273 173.632L171.374 173.142C170.662 172.996 169.903 172.858 169.226 172.785L169.172 173.282L169.118 173.779C169.748 173.847 170.471 173.978 171.173 174.121L171.273 173.632ZM189.314 155.77L189.634 155.386C188.349 154.317 186.304 153.785 184.284 153.6C182.247 153.413 180.128 153.57 178.615 153.968L178.742 154.452L178.869 154.935C180.25 154.572 182.25 154.418 184.193 154.596C186.152 154.775 187.947 155.283 188.995 156.155L189.314 155.77ZM178.742 154.452L178.611 153.969C178.386 154.031 178.045 154.122 177.704 154.241C177.372 154.357 176.992 154.515 176.71 154.727L177.011 155.127L177.311 155.526C177.464 155.412 177.722 155.294 178.034 155.185C178.336 155.08 178.642 154.997 178.874 154.934L178.742 154.452ZM177.011 155.127L176.71 154.727C176.561 154.839 176.45 154.991 176.398 155.173C176.347 155.35 176.362 155.521 176.405 155.665C176.487 155.942 176.684 156.169 176.891 156.319L177.185 155.915L177.478 155.51C177.443 155.485 177.413 155.455 177.392 155.428C177.382 155.414 177.374 155.403 177.37 155.394C177.367 155.389 177.366 155.386 177.365 155.383C177.364 155.381 177.363 155.38 177.363 155.38C177.363 155.38 177.364 155.381 177.364 155.384C177.365 155.387 177.365 155.392 177.365 155.398C177.366 155.41 177.365 155.428 177.359 155.448C177.345 155.495 177.319 155.521 177.311 155.526L177.011 155.127ZM177.185 155.915L176.891 156.319C178.578 157.543 180.114 158.437 181.793 159.015C183.474 159.593 185.271 159.845 187.471 159.816L187.465 159.316L187.458 158.816C185.346 158.844 183.667 158.602 182.118 158.069C180.567 157.535 179.12 156.701 177.478 155.51L177.185 155.915ZM187.465 159.316H187.965V159.313H187.465H186.965V159.316H187.465ZM187.465 159.313L187.473 159.813C187.434 159.814 187.408 159.802 187.469 159.82C187.49 159.827 187.534 159.84 187.582 159.851C187.633 159.861 187.703 159.872 187.786 159.867L187.756 159.368L187.725 158.869C187.762 158.867 187.786 158.872 187.789 158.872C187.79 158.873 187.787 158.872 187.76 158.864C187.739 158.857 187.696 158.844 187.649 158.834C187.6 158.823 187.534 158.812 187.457 158.813L187.465 159.313ZM187.756 159.368L187.849 159.859C188.608 159.715 189.16 159.416 189.542 158.946C189.912 158.49 190.074 157.93 190.173 157.363L189.681 157.277L189.188 157.191C189.099 157.702 188.974 158.059 188.765 158.315C188.568 158.558 188.252 158.765 187.663 158.877L187.756 159.368ZM189.681 157.277L190.173 157.363C190.278 156.761 190.226 155.95 189.66 155.409L189.314 155.77L188.969 156.131C189.183 156.336 189.268 156.73 189.188 157.191L189.681 157.277ZM191.353 129.18L191.602 128.747C188.797 127.133 185.263 127.542 182.512 128.783L182.718 129.239L182.923 129.695C185.505 128.53 188.677 128.218 191.103 129.614L191.353 129.18ZM182.718 129.239L182.405 128.849L182.366 128.88L182.679 129.27L182.991 129.661L183.03 129.629L182.718 129.239ZM182.679 129.27L182.471 128.815C181.821 129.112 180.506 130.013 179.318 130.939C178.716 131.409 178.129 131.897 177.657 132.338C177.422 132.558 177.21 132.77 177.037 132.965C176.87 133.154 176.718 133.35 176.624 133.537L177.071 133.761L177.518 133.986C177.553 133.916 177.636 133.797 177.786 133.628C177.931 133.464 178.118 133.276 178.34 133.069C178.783 132.655 179.345 132.186 179.932 131.728C181.124 130.8 182.355 129.967 182.886 129.725L182.679 129.27ZM177.071 133.761L176.623 133.54C176.525 133.738 176.523 133.95 176.594 134.138C176.657 134.306 176.77 134.431 176.867 134.519C177.059 134.692 177.317 134.826 177.527 134.922L177.735 134.467L177.944 134.013C177.75 133.924 177.609 133.842 177.536 133.776C177.501 133.744 177.514 133.745 177.529 133.784C177.538 133.807 177.546 133.841 177.544 133.882C177.543 133.924 177.532 133.959 177.519 133.983L177.071 133.761ZM177.735 134.467L177.527 134.922C178.009 135.143 178.517 135.268 178.999 135.355L179.088 134.863L179.177 134.371C178.733 134.291 178.317 134.184 177.943 134.013L177.735 134.467ZM179.088 134.863L178.999 135.355L183.409 136.154L183.498 135.662L183.587 135.17L179.177 134.371L179.088 134.863ZM183.498 135.662L183.409 136.154C183.693 136.205 183.926 136.121 184.058 136.072C184.216 136.013 184.249 135.999 184.293 135.997L184.271 135.498L184.248 134.998C184.007 135.009 183.794 135.103 183.708 135.135C183.652 135.156 183.623 135.164 183.604 135.168C183.596 135.17 183.591 135.17 183.59 135.17C183.588 135.17 183.588 135.17 183.587 135.17L183.498 135.662ZM184.271 135.498L184.291 135.997C186.433 135.909 188.421 136.072 190.672 134.975L190.453 134.525L190.234 134.076C188.223 135.056 186.522 134.905 184.25 134.998L184.271 135.498ZM190.453 134.525L190.717 134.95C190.874 134.852 191.318 134.548 191.445 134.449L191.139 134.054L190.832 133.66C190.739 133.732 190.325 134.016 190.19 134.1L190.453 134.525ZM191.139 134.054L191.492 134.408C192.582 133.319 192.809 131.818 192.71 130.468L192.211 130.505L191.712 130.541C191.802 131.756 191.58 132.907 190.785 133.701L191.139 134.054ZM192.211 130.505L192.71 130.468C192.681 130.084 192.548 129.729 192.332 129.422L191.923 129.71L191.514 129.997C191.631 130.165 191.698 130.347 191.712 130.541L192.211 130.505ZM191.923 129.71L192.332 129.422C192.144 129.155 191.899 128.918 191.602 128.747L191.353 129.18L191.103 129.614C191.261 129.704 191.4 129.836 191.514 129.997L191.923 129.71ZM176.48 107.239L176.79 106.846C174.585 105.108 171.517 105.117 169.108 106.405L169.344 106.846L169.58 107.287C171.708 106.149 174.336 106.185 176.171 107.632L176.48 107.239ZM169.344 106.846L169.108 106.405C166.972 107.548 165.216 109.932 163.885 111.725L164.286 112.023L164.688 112.321C166.06 110.474 167.681 108.302 169.58 107.287L169.344 106.846ZM164.286 112.023L163.885 111.725C163.785 111.859 163.703 112.006 163.641 112.16L164.105 112.346L164.57 112.533C164.6 112.457 164.64 112.386 164.688 112.321L164.286 112.023ZM164.105 112.346L163.641 112.16L163.268 113.09L163.732 113.276L164.196 113.462L164.57 112.533L164.105 112.346ZM163.732 113.276L163.268 113.09C163.189 113.289 163.184 113.524 163.306 113.734C163.42 113.931 163.605 114.039 163.773 114.088L163.915 113.609L164.058 113.13C164.061 113.131 164.124 113.151 164.172 113.234C164.227 113.329 164.213 113.422 164.197 113.462L163.732 113.276ZM163.915 113.609L163.772 114.088C165.386 114.571 167.388 114.614 169.343 114.38C171.304 114.146 173.262 113.627 174.803 112.947L174.602 112.49L174.4 112.032C172.961 112.667 171.1 113.163 169.224 113.387C167.344 113.612 165.492 113.559 164.058 113.13L163.915 113.609ZM174.602 112.49L174.803 112.947C175.079 112.826 175.354 112.662 175.586 112.507L175.309 112.092L175.031 111.676C174.827 111.812 174.604 111.943 174.4 112.032L174.602 112.49ZM175.309 112.092L175.586 112.507C175.881 112.311 176.109 112.085 176.315 111.818L175.919 111.512L175.523 111.207C175.373 111.402 175.222 111.548 175.031 111.676L175.309 112.092ZM175.919 111.512L176.315 111.818C177.251 110.603 177.981 109.094 177.364 107.404L176.895 107.576L176.425 107.747C176.862 108.943 176.394 110.078 175.523 111.207L175.919 111.512ZM176.895 107.576L177.364 107.404C177.272 107.153 177.094 107.024 176.974 106.954C176.936 106.931 176.854 106.887 176.845 106.883C176.816 106.866 176.804 106.858 176.798 106.853L176.48 107.239L176.163 107.625C176.235 107.685 176.305 107.726 176.358 107.756C176.383 107.77 176.409 107.783 176.425 107.792C176.444 107.803 176.457 107.809 176.466 107.815C176.486 107.827 176.479 107.825 176.465 107.811C176.448 107.793 176.433 107.77 176.425 107.748L176.895 107.576ZM157.844 89.2517L158.169 88.8722C157.308 88.1332 156.237 88.0614 155.219 88.207C154.214 88.3509 153.136 88.7287 152.222 89.001L152.365 89.4802L152.508 89.9593C153.493 89.6656 154.453 89.3269 155.361 89.1969C156.257 89.0687 156.976 89.1657 157.518 89.6311L157.844 89.2517ZM152.365 89.4802L152.223 89.0008C152.243 88.9948 152.318 88.9733 152.415 88.9844L152.357 89.4812L152.3 89.9779C152.403 89.9897 152.482 89.9671 152.507 89.9595L152.365 89.4802ZM152.357 89.4812L152.421 88.9852C152.311 88.9712 152.186 88.9911 152.073 89.0639L152.344 89.4841L152.615 89.9043C152.51 89.972 152.394 89.9899 152.294 89.9771L152.357 89.4812ZM152.344 89.4841L152.066 89.0686C151.551 89.4134 150.938 89.8564 150.327 90.3643L150.647 90.7487L150.966 91.1332C151.545 90.6517 152.13 90.2292 152.622 89.8995L152.344 89.4841ZM150.647 90.7487L150.327 90.3643C149.096 91.3878 148.808 92.7732 149.344 93.8851C149.875 94.9842 151.142 95.6711 152.714 95.4744L152.652 94.9782L152.59 94.4821C151.375 94.6341 150.56 94.1042 150.245 93.4504C149.936 92.8094 150.037 91.9057 150.966 91.1331L150.647 90.7487ZM152.652 94.9782L152.714 95.4744C153.562 95.3683 154.405 95.1966 155.256 94.9984L155.143 94.5114L155.029 94.0244C154.193 94.219 153.388 94.3822 152.59 94.4821L152.652 94.9782ZM155.143 94.5114L155.256 94.9984C155.865 94.8566 156.453 94.6218 156.992 94.2971L156.733 93.8689L156.475 93.4407C156.029 93.7095 155.54 93.9057 155.029 94.0244L155.143 94.5114ZM156.733 93.8689L156.992 94.297C157.893 93.7536 158.447 93.3326 158.807 92.4552L158.345 92.2653L157.882 92.0755C157.649 92.6443 157.331 92.925 156.475 93.4407L156.733 93.8689ZM158.345 92.2653L158.807 92.4552C159.273 91.3214 159.225 89.778 158.169 88.8722L157.844 89.2517L157.518 89.6311C158.13 90.156 158.251 91.1771 157.882 92.0755L158.345 92.2653Z" fill="black"/>
</g>
<g filter="url(#filter1_g_789_7371)">
<path d="M115.5 2.5L120.457 21" stroke="black" stroke-width="2" stroke-linecap="round"/>
</g>
<g filter="url(#filter2_g_789_7371)">
<path d="M78 39.293L96.5 44.2501" stroke="black" stroke-width="2" stroke-linecap="round"/>
</g>
<g filter="url(#filter3_g_789_7371)">
<path d="M92 16.4785L105.543 30.0215" stroke="black" stroke-width="2" stroke-linecap="round"/>
</g>
<g filter="url(#filter4_g_789_7371)">
<path d="M93.0883 86.7469C94.4997 88.5764 95.9269 90.3909 97.8911 91.6626C98.4673 92.0374 99.2725 92.3497 99.9026 92.6609C99.9483 92.6774 100.078 92.9736 100.378 93.1135C102.559 94.1003 104.934 94.4931 107.287 94.8052L107.374 94.5666C108.521 94.7327 109.681 94.6338 110.828 94.4882C116.13 93.8336 121.297 91.4477 125.887 88.8012C136.379 80.3395 147.74 72.5557 158.063 63.9079C159.854 62.4076 161.331 61.1776 162.781 59.2834C165.813 55.3255 168.819 49.5308 168.669 44.4728C168.515 39.4855 165.36 36.6302 162.246 33.1464C162.187 33.1974 161.759 33.2089 161.511 33.4097C155.024 38.7327 148.206 43.656 141.763 49.0264C142.318 49.4037 145.482 53.1757 144.349 53.9387C136.986 59.7131 129.712 65.613 122.349 71.3873C121.357 72.1599 120.234 72.812 119.385 73.7608C119.294 73.8111 119.145 73.8816 119.064 73.9044C117.048 74.0878 116.639 72.1958 115.303 71.2136C114.735 70.4163 114.254 69.6087 113.485 68.9671C107.045 74.8158 98.6638 79.6402 92.1949 85.6241C92.4352 86.0433 92.8132 86.367 93.1066 86.7535L93.0883 86.7469Z" fill="black"/>
</g>
<g filter="url(#filter5_g_789_7371)">
<path d="M140.708 46.8364C147.867 42.1483 154.187 35.9719 161.213 31.082C159.427 29.2001 157.974 27.03 156.233 25.1129C154.202 22.8768 153.756 21.9904 150.906 23.8788C149.926 24.5246 149.087 25.3541 148.2 26.1152C144.499 28.6655 140.698 31.5474 137.164 34.3825C135.996 35.3177 133.046 36.9963 133.811 38.6315L140.695 46.8421L140.708 46.8364Z" fill="black"/>
</g>
<g filter="url(#filter6_g_789_7371)">
<path d="M90.8075 83.4133C97.0067 77.9339 105.339 73.2166 111.768 67.8308C112.036 67.7331 112.188 67.2554 112.314 67.1681L106.219 59.7571C105.788 59.2835 105.173 58.9381 104.503 58.9821C103.938 59.0236 99.7706 62.2473 98.9431 62.8696C95.3456 65.511 91.8273 68.2835 88.2942 71.0096C86.6513 72.2792 83.9777 73.1858 84.6975 75.7206C85.2929 77.8108 89.3948 81.5086 90.8043 83.4224L90.8075 83.4133Z" fill="black"/>
</g>
<g filter="url(#filter7_g_789_7371)">
<path d="M67.6938 167L65.9999 176.354" stroke="black" stroke-width="7" stroke-linecap="round"/>
<path d="M90.3003 171.094L88.6063 180.448" stroke="black" stroke-width="7" stroke-linecap="round"/>
</g>
<g filter="url(#filter8_g_789_7371)">
<path d="M67.6938 167L65.9999 176.354" stroke="white" stroke-width="7" stroke-linecap="round"/>
<path d="M90.3003 171.094L88.6063 180.448" stroke="white" stroke-width="7" stroke-linecap="round"/>
</g>
<defs>
<filter id="filter0_g_789_7371" x="-0.000976562" y="77.0605" width="197.577" height="168.92" filterUnits="userSpaceOnUse" color-interpolation-filters="sRGB">
<feFlood flood-opacity="0" result="BackgroundImageFix"/>
<feBlend mode="normal" in="SourceGraphic" in2="BackgroundImageFix" result="shape"/>
<feTurbulence type="fractalNoise" baseFrequency="10 10" numOctaves="3" seed="9962" />
<feDisplacementMap in="shape" scale="3" xChannelSelector="R" yChannelSelector="G" result="displacedImage" width="100%" height="100%" />
<feMerge result="effect1_texture_789_7371">
<feMergeNode in="displacedImage"/>
</feMerge>
</filter>
<filter id="filter1_g_789_7371" x="113" y="0" width="9.95801" height="23.5" filterUnits="userSpaceOnUse" color-interpolation-filters="sRGB">
<feFlood flood-opacity="0" result="BackgroundImageFix"/>
<feBlend mode="normal" in="SourceGraphic" in2="BackgroundImageFix" result="shape"/>
<feTurbulence type="fractalNoise" baseFrequency="10 10" numOctaves="3" seed="9962" />
<feDisplacementMap in="shape" scale="3" xChannelSelector="R" yChannelSelector="G" result="displacedImage" width="100%" height="100%" />
<feMerge result="effect1_texture_789_7371">
<feMergeNode in="displacedImage"/>
</feMerge>
</filter>
<filter id="filter2_g_789_7371" x="75.4995" y="36.793" width="23.5005" height="9.95703" filterUnits="userSpaceOnUse" color-interpolation-filters="sRGB">
<feFlood flood-opacity="0" result="BackgroundImageFix"/>
<feBlend mode="normal" in="SourceGraphic" in2="BackgroundImageFix" result="shape"/>
<feTurbulence type="fractalNoise" baseFrequency="10 10" numOctaves="3" seed="9962" />
<feDisplacementMap in="shape" scale="3" xChannelSelector="R" yChannelSelector="G" result="displacedImage" width="100%" height="100%" />
<feMerge result="effect1_texture_789_7371">
<feMergeNode in="displacedImage"/>
</feMerge>
</filter>
<filter id="filter3_g_789_7371" x="89.5" y="13.9785" width="18.543" height="18.543" filterUnits="userSpaceOnUse" color-interpolation-filters="sRGB">
<feFlood flood-opacity="0" result="BackgroundImageFix"/>
<feBlend mode="normal" in="SourceGraphic" in2="BackgroundImageFix" result="shape"/>
<feTurbulence type="fractalNoise" baseFrequency="10 10" numOctaves="3" seed="9962" />
<feDisplacementMap in="shape" scale="3" xChannelSelector="R" yChannelSelector="G" result="displacedImage" width="100%" height="100%" />
<feMerge result="effect1_texture_789_7371">
<feMergeNode in="displacedImage"/>
</feMerge>
</filter>
<filter id="filter4_g_789_7371" x="90.6948" y="31.6465" width="79.48" height="64.6582" filterUnits="userSpaceOnUse" color-interpolation-filters="sRGB">
<feFlood flood-opacity="0" result="BackgroundImageFix"/>
<feBlend mode="normal" in="SourceGraphic" in2="BackgroundImageFix" result="shape"/>
<feTurbulence type="fractalNoise" baseFrequency="10 10" numOctaves="3" seed="2215" />
<feDisplacementMap in="shape" scale="3" xChannelSelector="R" yChannelSelector="G" result="displacedImage" width="100%" height="100%" />
<feMerge result="effect1_texture_789_7371">
<feMergeNode in="displacedImage"/>
</feMerge>
</filter>
<filter id="filter5_g_789_7371" x="132.186" y="21.3496" width="30.5269" height="26.9922" filterUnits="userSpaceOnUse" color-interpolation-filters="sRGB">
<feFlood flood-opacity="0" result="BackgroundImageFix"/>
<feBlend mode="normal" in="SourceGraphic" in2="BackgroundImageFix" result="shape"/>
<feTurbulence type="fractalNoise" baseFrequency="10 10" numOctaves="3" seed="2215" />
<feDisplacementMap in="shape" scale="3" xChannelSelector="R" yChannelSelector="G" result="displacedImage" width="100%" height="100%" />
<feMerge result="effect1_texture_789_7371">
<feMergeNode in="displacedImage"/>
</feMerge>
</filter>
<filter id="filter6_g_789_7371" x="83.0771" y="57.4785" width="30.7373" height="27.4434" filterUnits="userSpaceOnUse" color-interpolation-filters="sRGB">
<feFlood flood-opacity="0" result="BackgroundImageFix"/>
<feBlend mode="normal" in="SourceGraphic" in2="BackgroundImageFix" result="shape"/>
<feTurbulence type="fractalNoise" baseFrequency="10 10" numOctaves="3" seed="2215" />
<feDisplacementMap in="shape" scale="3" xChannelSelector="R" yChannelSelector="G" result="displacedImage" width="100%" height="100%" />
<feMerge result="effect1_texture_789_7371">
<feMergeNode in="displacedImage"/>
</feMerge>
</filter>
<filter id="filter7_g_789_7371" x="62.1995" y="163.2" width="31.9013" height="21.0492" filterUnits="userSpaceOnUse" color-interpolation-filters="sRGB">
<feFlood flood-opacity="0" result="BackgroundImageFix"/>
<feBlend mode="normal" in="SourceGraphic" in2="BackgroundImageFix" result="shape"/>
<feTurbulence type="fractalNoise" baseFrequency="10 10" numOctaves="3" seed="514" />
<feDisplacementMap in="shape" scale="0.60000002384185791" xChannelSelector="R" yChannelSelector="G" result="displacedImage" width="100%" height="100%" />
<feMerge result="effect1_texture_789_7371">
<feMergeNode in="displacedImage"/>
</feMerge>
</filter>
<filter id="filter8_g_789_7371" x="62.1995" y="163.2" width="31.9013" height="21.0492" filterUnits="userSpaceOnUse" color-interpolation-filters="sRGB">
<feFlood flood-opacity="0" result="BackgroundImageFix"/>
<feBlend mode="normal" in="SourceGraphic" in2="BackgroundImageFix" result="shape"/>
<feTurbulence type="fractalNoise" baseFrequency="10 10" numOctaves="3" seed="514" />
<feDisplacementMap in="shape" scale="0.60000002384185791" xChannelSelector="R" yChannelSelector="G" result="displacedImage" width="100%" height="100%" />
<feMerge result="effect1_texture_789_7371">
<feMergeNode in="displacedImage"/>
</feMerge>
</filter>
</defs>
</svg>
