<svg width="206" height="55" viewBox="0 0 206 55" fill="none" xmlns="http://www.w3.org/2000/svg">
<path d="M151.572 26.5803C151.679 26.6448 152.231 26.7165 152.259 26.4942C152.238 26.7165 152.317 16.4394 152.259 11.4192C152.231 9.00235 152.259 4.01083 152.259 4.01083C152.388 2.74143 152.474 1.73739 153.82 1.51507C155.403 1.24971 160.465 1.33577 162.176 1.49355C164.002 1.66567 164.625 2.4187 164.797 4.2475C165.011 6.54962 164.825 8.97367 164.797 11.1826C164.675 20.9791 164.696 30.8259 164.797 40.6225C164.832 44.0506 165.126 47.6938 164.797 51.1506C164.618 53.0081 163.952 53.2878 162.169 53.4671C160.386 53.6464 153.605 54.0336 152.259 53.4671C151.529 53.1587 151.085 52.4057 150.691 51.7459C146.768 45.1909 143.954 36.5705 140.431 29.7287C140.274 29.4203 140.166 28.9756 139.722 29.0043C139.5 29.0043 139.586 30.037 139.601 30.3167C139.987 36.7283 140.087 51.1434 140.087 51.1434C139.973 52.4057 139.371 53.3738 138.054 53.5316C138.054 53.5316 132.455 53.7683 129.684 53.5316C129.39 53.5101 129.118 53.4814 128.868 53.4456C127.722 53.2734 126.884 52.2694 126.884 51.1076L126.82 3.71679C126.82 3.2076 126.956 2.69123 127.285 2.30396C127.686 1.83779 128.259 1.57244 128.968 1.49355C130.736 1.2784 137.381 1.31426 138.877 1.86648C140.087 2.3183 140.302 2.85618 140.918 3.88891C143.546 8.25649 146.41 14.833 148.644 19.595C149.109 20.5847 151.257 26.3795 151.579 26.5803H151.572Z" fill="black"/>
<path d="M83.1369 35.3441C82.428 35.3584 81.2538 35.3728 80.6166 35.3728C80.366 35.3728 80.1726 35.5736 80.1726 35.8246L80.144 51.3729C80.0294 52.8216 78.6834 53.5029 77.3946 53.6391C75.5115 53.84 71.6594 53.8113 69.7405 53.6463C68.0508 53.5029 66.9195 53.2375 66.7548 51.3801C66.4398 47.9161 66.7548 43.4696 66.7548 39.8766C66.7405 28.868 66.9983 17.6873 66.7763 6.62846C66.7333 4.563 66.3825 1.57239 68.7883 1.48633C68.7883 1.48633 99.8769 -2.06368 102.469 12.9754C103.657 19.8818 102.992 29.1477 96.6406 33.2141L102.963 49.8023C103.185 51.1792 103.357 52.6494 101.875 53.2877C100.571 53.8471 94.3423 53.8113 92.6811 53.6463C89.8243 53.3666 89.5021 52.2693 88.557 49.8812C86.7169 45.2195 85.6643 40.4001 83.7455 35.7457C83.6452 35.5018 83.4018 35.3441 83.1369 35.3441ZM80.1368 23.8478C80.1368 24.2064 80.3946 24.5004 80.7526 24.5506C83.1512 24.8662 86.8601 25.0598 88.4997 23.3888C90.7193 21.1225 90.5188 15.1772 87.6333 13.499C86.6882 12.9468 81.7765 12.2583 80.7956 12.5595C80.6166 12.6097 80.1512 12.7029 80.1512 13.8217V23.8478H80.1368Z" fill="black"/>
<path d="M204.355 23.5035C204.592 23.5035 204.814 23.5968 204.971 23.7689C205.293 24.1203 205.508 24.5793 205.515 25.0598C205.981 37.3737 207.105 53.381 190.816 54.844C177.477 56.0417 169.808 50.2398 169.2 36.7999C168.913 30.4529 168.448 16.3964 170.524 10.8383C175.801 -3.26852 198.685 -3.706 204.427 10.1211C205.207 12.0001 207.527 18.7057 204.42 19.1933C202.437 19.5017 196.759 19.3941 194.632 19.2148C194.195 19.179 193.759 19.1933 193.393 18.8921C192.226 17.9311 192.484 13.4703 189.398 12.4878C183.677 10.6733 182.553 16.5111 182.331 20.7424C182.109 24.9737 181.816 36.5131 183.183 40.0057C184.25 42.731 186.67 42.9891 189.37 42.6162C192.448 42.1931 193.594 37.5888 193.265 34.8277C193.229 34.5121 193 34.2396 192.692 34.1536C191.374 33.7735 188.36 34.5767 187.887 32.9057C187.766 32.4682 187.63 30.6968 187.594 30.0944C187.551 29.4059 187.501 27.2902 187.558 25.777C187.594 24.902 187.723 23.5753 189.162 23.4964H204.363L204.355 23.5035Z" fill="black"/>
<path d="M26.573 44.5957L15.6468 44.6602C15.3604 44.6602 15.1027 44.8467 15.0239 45.1192C14.1719 48.1744 14.6444 52.4272 12.1313 53.3452C10.8783 53.8042 3.20275 53.8687 1.69915 53.6321C0.947355 53.5173 0.231356 52.8934 0.0451967 52.1619C-0.262683 50.9498 1.09055 45.8722 1.44139 44.316C4.46291 31.1128 7.90686 17.9957 10.9499 4.79975C10.9499 4.7854 10.9499 4.76389 10.957 4.74954C11.3866 2.71994 13.2411 1.29277 15.3103 1.30711C18.8616 1.3358 25.0837 1.31429 27.3319 1.30711C28.2412 1.30711 29.1505 1.46489 29.9596 1.88802C30.8331 2.33984 31.721 3.63793 31.9644 4.4555L42.5684 50.9355C42.8619 52.2336 41.9598 53.503 40.6352 53.6392H40.6137C38.2724 53.8759 33.6613 53.8544 31.2985 53.6536C30.1744 53.5603 29.1219 53.3954 28.678 52.2121C28.2627 51.1148 27.8403 47.6867 27.2174 45.0834C27.1458 44.7893 26.8808 44.5885 26.5801 44.5885L26.573 44.5957ZM24.4751 33.5512C24.7328 33.5512 24.9262 33.3217 24.8832 33.0635C23.9954 28.0218 22.2268 17.5224 22.2268 17.5224C22.0765 16.9487 22.0407 15.8442 21.2746 15.8442C20.58 15.8442 20.4655 17.465 20.3509 17.7949C20.3509 17.7949 19.7065 21.2517 19.3127 23.2239C18.654 26.4799 18.1027 29.7861 17.6373 33.0779C17.6015 33.3289 17.802 33.5584 18.0526 33.5584H24.4751V33.5512Z" fill="black"/>
<path d="M120.899 2.29677C121.278 2.70556 121.414 3.45142 121.464 4.00365C121.908 8.84456 121.5 14.001 121.464 18.8348C121.378 29.6713 121.4 40.4934 121.464 51.3227C120.899 54.0336 118.629 53.2734 116.56 53.4169C114.698 53.5388 109.758 54.2201 108.383 52.8718C108.125 52.6136 107.875 51.7817 107.832 51.3873C107.846 35.4445 108.433 19.5089 107.653 3.59486C107.953 2.53344 108.77 1.69435 109.879 1.52223C111.476 1.27839 118.672 1.34293 120.061 1.82344C120.319 1.9095 120.712 2.11031 120.891 2.29677H120.899Z" fill="black"/>
<path d="M49.6351 38.2701C49.8427 38.1052 50.0862 37.5243 50.1578 37.2446C50.4513 36.0469 50.6017 33.5655 50.6661 32.2531C50.8308 28.9325 50.9955 20.2978 49.8785 17.4721C48.6255 14.3166 44.7092 17.9455 44.3083 14.5461C44.1149 12.9037 44.072 5.022 44.4228 3.6522C45.0959 1.0632 50.3013 1.10623 52.3705 1.61542C64.8289 4.68493 63.719 30.9478 61.4349 40.5436C60.3896 44.9112 58.9148 51.1434 54.5687 52.9435C52.2489 53.9045 44.8524 54.636 44.5374 51.1577C44.3226 48.7982 44.3083 43.9215 44.5374 41.5691C44.9312 37.4526 47.8523 39.7188 49.6351 38.2845V38.2701Z" fill="black"/>
</svg>
