<svg width="24" height="9" viewBox="0 0 24 9" fill="none" xmlns="http://www.w3.org/2000/svg">
<path d="M1.80154 3.47087C2.35623 2.91618 3.33598 2.33759 5.1545 1.82256C7.36884 1.19923 9.2007 0.836214 12.019 0.832249C14.7391 0.831135 16.2813 1.0492 18.8939 1.80845C21.8443 2.66512 22.6636 3.84136 22.8906 4.46729C23.1627 5.21454 23.1169 5.87005 22.9663 6.62587C22.8775 7.05194 22.7496 7.46894 22.5843 7.87156C22.5681 7.91219 22.5533 7.95027 22.5402 7.98436C22.4629 8.18838 22.3455 8.49725 21.9733 8.66492C21.7255 8.77747 21.4263 8.79994 20.9259 8.80312C19.9005 8.81032 18.061 8.38202 17.2439 8.08546C16.6938 7.88491 16.3304 7.75282 16.0523 7.47525C15.727 7.14994 15.6398 6.7354 15.5677 6.26601C15.554 6.17793 15.5424 6.09241 15.531 6.00944C15.4632 5.50908 15.4285 5.37952 15.2507 5.26418C14.8927 5.03293 13.5431 4.62845 11.9917 4.6303C10.4403 4.63215 9.14574 5.04143 8.78685 5.27418C8.6013 5.39438 8.56691 5.52765 8.49753 6.04478C8.48758 6.11894 8.47762 6.19537 8.46568 6.2738C8.38806 6.80201 8.30818 7.20067 7.99049 7.51836L7.98878 7.52006C7.71229 7.79656 7.35569 7.91337 6.7658 8.10778C5.99634 8.3613 4.13179 8.83315 3.10265 8.8287C2.60229 8.82676 2.30309 8.80548 2.05534 8.69355C1.68228 8.52509 1.56639 8.21653 1.48713 8.01168C1.47406 7.97758 1.45986 7.94008 1.44339 7.89916C1.27959 7.49614 1.15322 7.07889 1.06589 6.65269C0.916221 5.8989 0.872528 5.24311 1.14565 4.49439C1.28392 4.10794 1.50819 3.75795 1.80154 3.47087Z" fill="#1D1E1D"/>
</svg>
