<svg width="30" height="30" viewBox="0 0 30 30" fill="none" xmlns="http://www.w3.org/2000/svg">
<path d="M16.5 21.1872C16.5 21.1872 19 19.5622 19.5 19.3122C20 19.0622 20.5625 18.9372 20.875 19.1872C21.375 19.4997 25.5625 22.2497 25.9375 22.4997C26.3125 22.7497 26.4375 23.4372 26 24.1247C25.5 24.8122 23.3125 27.5622 22.375 27.4997C21.4375 27.4997 17.125 27.7497 9.68752 20.3747C2.25002 12.9372 2.50002 8.62469 2.50002 7.68719C2.50002 6.74969 5.18752 4.49969 5.87502 4.06219C6.56252 3.56219 7.25002 3.74969 7.50002 4.12469C7.75002 4.49969 10.5 8.68719 10.8125 9.18719C11 9.49969 10.9375 10.0622 10.6875 10.5622C10.4375 11.0622 8.81252 13.5622 8.81252 13.5622C8.81252 13.5622 9.25002 15.3122 11.9375 18.0622C14.6875 20.7497 16.5 21.1872 16.5 21.1872Z" fill="black"/>
<path d="M21.875 5.625H15.625V8.125H21.875C22.5625 8.125 23.125 8.6875 23.125 9.375V15.625H25.625V9.375C25.625 7.3125 23.9375 5.625 21.875 5.625Z" fill="black"/>
<path d="M17.5 10L13.3125 6.875L17.5 3.75V10Z" fill="black"/>
</svg>
