<svg width="20" height="15" viewBox="0 0 20 15" fill="none" xmlns="http://www.w3.org/2000/svg">
<path d="M6.17406 12.1222L2.03177 7.98283C1.80857 7.75979 1.50584 7.63449 1.19019 7.63449C0.874528 7.63449 0.5718 7.75979 0.348597 7.98283C0.125394 8.20588 0 8.50839 0 8.82382C0 8.98001 0.0307853 9.13466 0.0905977 9.27896C0.15041 9.42325 0.238078 9.55437 0.348597 9.66481L5.33844 14.6511C5.804 15.1163 6.55606 15.1163 7.02161 14.6511L19.6514 2.03032C19.8746 1.80728 20 1.50477 20 1.18933C20 0.873903 19.8746 0.571392 19.6514 0.348348C19.4282 0.125305 19.1255 0 18.8098 0C18.4942 0 18.1914 0.125305 17.9682 0.348348L6.17406 12.1222Z" fill="black"/>
</svg>
