<svg width="9" height="5" viewBox="0 0 9 5" fill="none" xmlns="http://www.w3.org/2000/svg">
<path d="M8.45 0.913205L4.825 4.70185C4.74167 4.78895 4.65833 4.84992 4.575 4.88475C4.49167 4.91959 4.4 4.93701 4.3 4.93701C4.2 4.93701 4.10833 4.91959 4.025 4.88475C3.94167 4.84992 3.85833 4.78895 3.775 4.70185L0.15 0.913205C0.1 0.860948 0.0626668 0.804161 0.0380001 0.742846C0.0133334 0.681531 0.000666667 0.616384 0 0.547404C0 0.408051 0.046 0.286117 0.138 0.181602C0.23 0.0770884 0.350667 0.0248313 0.5 0.0248313H8.1C8.25 0.0248313 8.371 0.0770884 8.463 0.181602C8.555 0.286117 8.60067 0.408051 8.6 0.547404C8.6 0.582242 8.55 0.704176 8.45 0.913205Z" fill="black" fill-opacity="0.3"/>
</svg>
