<svg width="20" height="20" viewBox="0 0 20 20" fill="none" xmlns="http://www.w3.org/2000/svg">
<path d="M2 20C1.45 20 0.979333 19.8046 0.588 19.4137C0.196667 19.0229 0.000666667 18.5525 0 18.0025V4.01997C0 3.47066 0.196 3.00058 0.588 2.60974C0.98 2.21889 1.45067 2.02314 2 2.02247H10.925L8.925 4.01997H2V18.0025H16V11.0612L18 9.06367V18.0025C18 18.5518 17.8043 19.0222 17.413 19.4137C17.0217 19.8052 16.5507 20.0007 16 20H2ZM6 14.0075V9.7628L15.175 0.599251C15.375 0.399501 15.6 0.249688 15.85 0.149813C16.1 0.0499375 16.35 0 16.6 0C16.8667 0 17.121 0.0499375 17.363 0.149813C17.605 0.249688 17.8257 0.399501 18.025 0.599251L19.425 2.02247C19.6083 2.22222 19.75 2.44295 19.85 2.68464C19.95 2.92634 20 3.1717 20 3.42072C20 3.66975 19.9543 3.91544 19.863 4.1578C19.7717 4.40017 19.6257 4.62056 19.425 4.81898L10.25 14.0075H6ZM8 12.01H9.4L15.2 6.21723L14.5 5.5181L13.775 4.81898L8 10.5868V12.01Z" fill="black"/>
</svg>
