<svg width="20" height="20" viewBox="0 0 20 20" fill="currentColor" xmlns="http://www.w3.org/2000/svg">
<path fill-rule="evenodd" clip-rule="evenodd" d="M9.99998 0C15.513 0 20 4.48702 20 9.99998C20 15.513 15.513 20 9.99998 20C4.48702 20 0 15.513 0 9.99998C0 4.48702 4.48702 0 9.99998 0ZM9.99998 2.00002C5.57227 2.00002 2.00002 5.57227 2.00002 9.99998C2.00002 14.4278 5.57227 18 9.99998 18C14.4278 18 18 14.4278 18 9.99998C18 5.57227 14.4278 2.00002 9.99998 2.00002ZM9.99998 12.752C10.7143 12.752 11.25 13.28 11.25 14C11.25 14.72 10.7143 15.248 9.99998 15.248C9.26948 15.248 8.75002 14.72 8.75002 13.984C8.75002 13.28 9.2857 12.752 9.99998 12.752ZM10 4.99998C10.5523 4.99998 11 5.4477 11 5.99999V10C11 10.5523 10.5523 11 10 11C9.44772 11 9 10.5523 9 10V5.99999C9 5.4477 9.44772 4.99998 10 4.99998Z" fill="currentColor"/>
</svg>
