<svg width="20" height="24" viewBox="0 0 20 24" fill="none" xmlns="http://www.w3.org/2000/svg">
<path d="M16.75 8.33333C17.3467 8.33333 17.919 8.55408 18.341 8.94701C18.7629 9.33995 19 9.87288 19 10.4286V20.9048C19 21.4605 18.7629 21.9934 18.341 22.3863C17.919 22.7793 17.3467 23 16.75 23H3.25C2.65326 23 2.08097 22.7793 1.65901 22.3863C1.23705 21.9934 1 21.4605 1 20.9048V10.4286C1 9.87288 1.23705 9.33995 1.65901 8.94701C2.08097 8.55408 2.65326 8.33333 3.25 8.33333H4.375V6.23809C4.375 4.84887 4.96763 3.51654 6.02252 2.5342C7.07742 1.55187 8.50816 1 10 1C10.7387 1 11.4701 1.13549 12.1526 1.39873C12.835 1.66196 13.4551 2.0478 13.9775 2.5342C14.4998 3.0206 14.9141 3.59805 15.1968 4.23356C15.4795 4.86908 15.625 5.55022 15.625 6.23809V8.33333H16.75ZM10 3.09524C9.10489 3.09524 8.24645 3.42636 7.61351 4.01576C6.98058 4.60516 6.625 5.40456 6.625 6.23809V8.33333H13.375V6.23809C13.375 5.40456 13.0194 4.60516 12.3865 4.01576C11.7536 3.42636 10.8951 3.09524 10 3.09524Z" fill="#4D4D4D" stroke="#4D4D4D"/>
</svg>
