<svg width="16" height="20" viewBox="0 0 16 20" fill="none" xmlns="http://www.w3.org/2000/svg">
<g clip-path="url(#clip0_777_7380)">
<path d="M7.00667 16.9512C6.98794 16.8926 6.12735 16.7282 5.97487 16.683C3.42747 15.925 1.44412 13.6123 1.08872 10.9678C0.984014 10.1888 0.975988 8.65976 1.04363 7.86805C1.14146 6.72533 2.87756 6.74142 2.99411 7.83088C3.15691 9.35375 2.76559 10.5153 3.45193 12.0469C5.19758 15.9426 10.7785 15.9603 12.5367 12.0738C13.2196 10.5643 12.8673 9.39322 13.0049 7.86805C13.108 6.7192 14.8598 6.73337 14.9569 7.86805C15.0253 8.66589 15.015 10.1815 14.9118 10.9678C14.5659 13.6008 12.5807 15.9108 10.0547 16.6738C9.70425 16.7796 9.32478 16.8129 8.99384 16.9512V17.9476L9.05116 18.0051H12.223C12.3464 18.0051 12.732 18.2974 12.8088 18.4139C13.2716 19.1137 12.7427 20.0234 11.9188 19.9996L3.87076 19.9809C3.03959 19.8736 2.71591 18.7351 3.37855 18.2189C3.42823 18.1802 3.73777 18.0054 3.77713 18.0054H6.94896L7.00629 17.948V16.9516L7.00667 16.9512Z" fill="#444444"/>
<path d="M8 0C10.2091 0 12 1.79086 12 4V10C12 12.2091 10.2091 14 8 14C5.79086 14 4 12.2091 4 10V4C4 1.79086 5.79086 0 8 0Z" fill="#444444"/>
</g>
<path d="M15 16L1 2" stroke="#444444" stroke-width="2" stroke-linecap="round"/>
<defs>
<clipPath id="clip0_777_7380">
<rect width="14" height="20" fill="white" transform="translate(1)"/>
</clipPath>
</defs>
</svg>
