<svg width="28" height="28" viewBox="0 0 28 28" fill="none" xmlns="http://www.w3.org/2000/svg">
<path d="M20.125 14C20.8212 14 21.4889 14.2766 21.9812 14.7688C22.4734 15.2611 22.75 15.9288 22.75 16.625V17.5C22.75 20.9492 19.495 24.5 14 24.5C8.505 24.5 5.25 20.9492 5.25 17.5V16.625C5.25 15.9288 5.52656 15.2611 6.01884 14.7688C6.51113 14.2766 7.17881 14 7.875 14H20.125ZM14 2.625C15.2764 2.625 16.5004 3.13203 17.403 4.03455C18.3055 4.93707 18.8125 6.16115 18.8125 7.4375C18.8125 8.71385 18.3055 9.93793 17.403 10.8405C16.5004 11.743 15.2764 12.25 14 12.25C12.7236 12.25 11.4996 11.743 10.597 10.8405C9.69453 9.93793 9.1875 8.71385 9.1875 7.4375C9.1875 6.16115 9.69453 4.93707 10.597 4.03455C11.4996 3.13203 12.7236 2.625 14 2.625Z" fill="white"/>
</svg>
