<svg width="24" height="24" viewBox="0 0 24 24" fill="none" xmlns="http://www.w3.org/2000/svg">
<g clip-path="url(#clip0_595_4523)">
<path d="M23.0205 0.000976562C23.0381 0.00132935 23.0557 0.00165344 23.0732 0.00292969L23.1025 0.00488281C23.205 0.0153257 23.3026 0.0420148 23.3936 0.0810547C23.4004 0.0839779 23.4073 0.0867611 23.4141 0.0898438C23.4316 0.0978401 23.4488 0.106272 23.4658 0.115234C23.471 0.117945 23.4763 0.120241 23.4814 0.123047L23.5342 0.154297C23.5395 0.15768 23.5445 0.161558 23.5498 0.165039C23.5582 0.170553 23.566 0.176826 23.5742 0.182617C23.5927 0.195652 23.6114 0.208427 23.6289 0.222656C23.6343 0.227007 23.6392 0.231849 23.6445 0.236328C23.6623 0.251378 23.6796 0.266964 23.6963 0.283203C23.6997 0.286556 23.7036 0.289556 23.707 0.292969C23.7101 0.296068 23.7128 0.299605 23.7158 0.302734C23.7533 0.341206 23.7874 0.382674 23.8184 0.426758C23.8243 0.435209 23.8303 0.443559 23.8359 0.452148C23.8452 0.466195 23.8538 0.480591 23.8623 0.495117C23.8679 0.504581 23.8737 0.513835 23.8789 0.523438C23.8901 0.544131 23.9004 0.565372 23.9102 0.586914C23.9137 0.594636 23.9166 0.602561 23.9199 0.610352C23.9279 0.629203 23.9346 0.648548 23.9414 0.667969C23.9452 0.678683 23.9488 0.689384 23.9521 0.700195C23.958 0.718931 23.964 0.737644 23.9688 0.756836C23.9707 0.764661 23.9728 0.772412 23.9746 0.780273C23.9795 0.801867 23.9839 0.823608 23.9873 0.845703C23.9892 0.858046 23.9907 0.870418 23.9922 0.882812C23.9936 0.895109 23.9941 0.907494 23.9951 0.919922C23.9967 0.940109 23.9986 0.960233 23.999 0.980469C23.9991 0.986969 24 0.99347 24 1V7C24 7.55226 23.5522 7.99996 23 8C22.4477 8 22 7.55228 22 7V3.41406L16.707 8.70703C16.3165 9.09754 15.6835 9.09752 15.293 8.70703C14.9024 8.31651 14.9024 7.68349 15.293 7.29297L20.5859 2H17C16.4477 2 16 1.55228 16 1C16 0.447715 16.4477 0 17 0H23L23.0205 0.000976562Z" fill="#4D4D4D" fill-opacity="0.5"/>
<path d="M21.9999 16.9201V19.9201C22.0011 20.1986 21.944 20.4743 21.8324 20.7294C21.7209 20.9846 21.5572 21.2137 21.352 21.402C21.1468 21.5902 20.9045 21.7336 20.6407 21.8228C20.3769 21.912 20.0973 21.9452 19.8199 21.9201C16.7428 21.5857 13.7869 20.5342 11.1899 18.8501C8.77376 17.3148 6.72527 15.2663 5.18993 12.8501C3.49991 10.2413 2.44818 7.27109 2.11993 4.1801C2.09494 3.90356 2.12781 3.62486 2.21643 3.36172C2.30506 3.09859 2.4475 2.85679 2.6347 2.65172C2.82189 2.44665 3.04974 2.28281 3.30372 2.17062C3.55771 2.05843 3.83227 2.00036 4.10993 2.0001H7.10993C7.59524 1.99532 8.06572 2.16718 8.43369 2.48363C8.80166 2.80008 9.04201 3.23954 9.10993 3.7201C9.23656 4.68016 9.47138 5.62282 9.80993 6.5301C9.94448 6.88802 9.9736 7.27701 9.89384 7.65098C9.81408 8.02494 9.6288 8.36821 9.35993 8.6401L8.08993 9.9101C9.51349 12.4136 11.5864 14.4865 14.0899 15.9101L15.3599 14.6401C15.6318 14.3712 15.9751 14.1859 16.3491 14.1062C16.723 14.0264 17.112 14.0556 17.4699 14.1901C18.3772 14.5286 19.3199 14.7635 20.2799 14.8901C20.7657 14.9586 21.2093 15.2033 21.5265 15.5776C21.8436 15.9519 22.0121 16.4297 21.9999 16.9201Z" stroke="#4D4D4D" stroke-width="2" stroke-linecap="round" stroke-linejoin="round"/>
</g>
<defs>
<clipPath id="clip0_595_4523">
<rect width="24" height="24" fill="white"/>
</clipPath>
</defs>
</svg>
