<svg width="19" height="19" viewBox="0 0 19 19" fill="none" xmlns="http://www.w3.org/2000/svg">
<path d="M8.01953 2.44336C8.08437 2.4403 8.14913 2.451 8.20996 2.47363C8.24054 2.48504 8.27034 2.49936 8.29785 2.5166L8.37402 2.57617C8.39771 2.59875 8.41896 2.62363 8.4375 2.65039L8.48438 2.73535C8.50993 2.79514 8.52345 2.85978 8.52344 2.9248V8.39941C8.52353 8.88152 8.69119 9.34617 8.99414 9.71582L9.13184 9.86816C9.52139 10.2577 10.0497 10.4765 10.6006 10.4766H16.0762C16.1412 10.4765 16.2058 10.4901 16.2656 10.5156C16.2955 10.5284 16.324 10.5441 16.3506 10.5625L16.4238 10.626C16.4463 10.6496 16.4672 10.6747 16.4844 10.7021L16.5273 10.7891C16.5388 10.8197 16.5468 10.8517 16.5518 10.8838L16.5566 10.9805C16.3523 15.3061 12.7817 18.75 8.40723 18.75C3.90243 18.7497 0.250251 15.0976 0.25 10.5928C0.25 6.35436 3.48184 2.87085 7.61621 2.47266L8.01953 2.44336ZM10.9893 0.250977C15.0545 0.441346 18.3417 3.60724 18.7217 7.62012L18.749 8.01074C18.7505 8.04312 18.7491 8.07556 18.7441 8.10742L18.7197 8.20215C18.7083 8.23256 18.6939 8.26169 18.6768 8.28906L18.6172 8.36523C18.5723 8.41233 18.5178 8.44998 18.458 8.47559C18.3982 8.50117 18.3336 8.51466 18.2686 8.51465H10.9668C10.871 8.51465 10.7778 8.48606 10.6992 8.43359L10.626 8.37402C10.5358 8.2838 10.4854 8.1608 10.4854 8.0332V0.731445L10.4951 0.634766C10.5016 0.602984 10.5116 0.571968 10.5244 0.541992C10.5372 0.512168 10.5529 0.483558 10.5713 0.457031L10.6348 0.382812C10.6582 0.360471 10.6836 0.340355 10.7109 0.323242L10.7979 0.280273C10.8284 0.268863 10.8605 0.26085 10.8926 0.255859L10.9893 0.250977Z" fill="#4D4D4D" stroke="#4D4D4D" stroke-width="0.5"/>
</svg>
