<svg width="19" height="19" viewBox="0 0 19 19" fill="none" xmlns="http://www.w3.org/2000/svg">
<path d="M16.9422 16.2743L17.5354 15.401C18.0912 14.5836 17.9109 13.4812 17.114 12.8243L15.5265 11.5169C14.835 10.9469 13.8493 10.8578 13.0913 11.2962L10.9791 12.5146C10.0476 12.1252 9.19557 11.5206 8.42294 10.7009C7.67328 9.91832 7.08827 8.99331 6.70254 7.98061L7.98524 6.14496C8.47173 5.44917 8.42435 4.52074 7.86927 3.84121L6.57456 2.258C5.92897 1.46816 4.78417 1.23693 3.89675 1.71565L2.94498 2.23042C1.99746 2.74237 1.42399 3.70474 1.43884 4.7562C1.47467 7.23862 2.96054 9.95203 5.89644 12.8964C8.83706 15.8436 11.612 17.3986 14.2212 17.5612C15.3186 17.6291 16.3538 17.1398 16.9429 16.275" fill="#4D4D4D"/>
<path d="M16.9422 16.2743L17.5354 15.401C18.0912 14.5836 17.9109 13.4812 17.114 12.8243L15.5265 11.5169C14.835 10.9469 13.8493 10.8578 13.0913 11.2962L10.9791 12.5146C10.0476 12.1252 9.19557 11.5206 8.42294 10.7009C7.67328 9.91832 7.08827 8.99331 6.70254 7.98061L7.98524 6.14496C8.47173 5.44917 8.42435 4.52074 7.86927 3.84121L6.57456 2.258C5.92897 1.46816 4.78417 1.23693 3.89675 1.71565L2.94498 2.23042C1.99746 2.74237 1.42399 3.70474 1.43884 4.7562C1.47467 7.23862 2.96054 9.95203 5.89644 12.8964C8.83706 15.8436 11.612 17.3986 14.2212 17.5612C15.3186 17.6291 16.3538 17.1398 16.9429 16.275" stroke="#4D4D4D"/>
</svg>
