<svg width="24" height="24" viewBox="0 0 24 24" fill="none" xmlns="http://www.w3.org/2000/svg">
<path d="M14.704 3.44285C14.895 3.66785 15 3.95385 15 4.24985V19.7519C15 19.9903 14.9319 20.2238 14.8035 20.4248C14.6752 20.6258 14.4921 20.7859 14.2757 20.8862C14.0594 20.9865 13.8188 21.0228 13.5825 20.9908C13.3462 20.9589 13.124 20.86 12.942 20.7059L7.975 16.4999H4.25C3.65326 16.4999 3.08097 16.2628 2.65901 15.8408C2.23705 15.4189 2 14.8466 2 14.2499V9.74985C2 9.15311 2.23705 8.58082 2.65901 8.15886C3.08097 7.7369 3.65326 7.49985 4.25 7.49985H7.975L12.943 3.29585C13.1961 3.08194 13.5237 2.97726 13.8539 3.00482C14.1841 3.03239 14.4899 3.18994 14.704 3.44285ZM17.104 8.63985C17.2738 8.53656 17.4776 8.50487 17.6707 8.55175C17.8638 8.59862 18.0305 8.72022 18.134 8.88985C18.708 9.82985 18.996 10.8819 18.996 12.0299C18.996 13.1779 18.708 14.2309 18.134 15.1709C18.0841 15.2578 18.0174 15.3338 17.9376 15.3945C17.8579 15.4551 17.7668 15.4992 17.6698 15.5241C17.5727 15.549 17.4717 15.5542 17.3726 15.5394C17.2735 15.5246 17.1783 15.4901 17.0928 15.4379C17.0073 15.3857 16.9331 15.3169 16.8746 15.2355C16.8161 15.1542 16.7745 15.062 16.7522 14.9643C16.7299 14.8666 16.7275 14.7654 16.745 14.6668C16.7624 14.5681 16.7995 14.4739 16.854 14.3899C17.282 13.6879 17.496 12.9069 17.496 12.0299C17.496 11.1529 17.282 10.3729 16.854 9.67085C16.7507 9.50108 16.719 9.29725 16.7659 9.10413C16.8128 8.91101 16.9344 8.74338 17.104 8.63985Z" fill="#444444"/>
</svg>
