<svg width="19" height="19" viewBox="0 0 19 19" fill="none" xmlns="http://www.w3.org/2000/svg">
<path d="M8.30957 0.0107422C12.4847 0.222641 15.8046 3.67455 15.8047 7.90234L15.7949 8.30957C15.7161 9.86248 15.1875 11.2959 14.3389 12.4854L18.2686 16.415L18.3369 16.4902C18.6574 16.883 18.6346 17.4629 18.2686 17.8291C17.9024 18.1953 17.3225 18.218 16.9297 17.8975L16.8545 17.8291L12.9795 13.9541C11.6059 15.1074 9.83621 15.8047 7.90234 15.8047L7.49609 15.7949C3.45549 15.5902 0.215809 12.3501 0.0107422 8.30957L0 7.90234C5.10233e-05 3.53809 3.53812 0.000167086 7.90234 0L8.30957 0.0107422ZM7.90234 2C4.64269 2.00017 2.00005 4.64266 2 7.90234C2 11.1621 4.64266 13.8045 7.90234 13.8047C11.1622 13.8047 13.8047 11.1622 13.8047 7.90234C13.8046 4.64256 11.1621 2 7.90234 2Z" fill="#4D4D4D"/>
</svg>
