<svg width="22" height="22" viewBox="0 0 22 22" fill="none" xmlns="http://www.w3.org/2000/svg">
<path d="M9.05176 0.666992C10.3396 0.448267 11.6572 0.448709 12.9453 0.666016C13.0681 1.17603 13.2747 1.66377 13.5586 2.11035L13.7158 2.34277C14.1522 2.94921 14.7254 3.45176 15.3906 3.81641V3.81738C15.9731 4.13684 16.6145 4.34349 17.2773 4.42676L17.5625 4.45508C18.2102 4.50151 18.86 4.42794 19.4785 4.24316C20.3122 5.18435 20.9634 6.25515 21.4053 7.4082C21.0076 7.76027 20.6692 8.17027 20.4053 8.625L20.2725 8.87012C19.9371 9.53353 19.7628 10.2616 19.7627 11L19.7715 11.29C19.8514 12.5981 20.4688 13.7626 21.4062 14.5928C20.9635 15.745 20.3115 16.8146 19.4775 17.7549C18.8592 17.5702 18.2091 17.4985 17.5615 17.5449C16.8937 17.5929 16.2426 17.7651 15.6445 18.0518L15.3906 18.1816C14.8087 18.5007 14.2977 18.926 13.8867 19.4336L13.7168 19.6553C13.3518 20.1625 13.0918 20.7316 12.9473 21.3311C11.6594 21.5503 10.342 21.5508 9.05371 21.334C8.93115 20.8241 8.72588 20.3362 8.44238 19.8896L8.28516 19.6582C7.90339 19.1269 7.41708 18.6746 6.85547 18.3252L6.61035 18.1816L6.35742 18.0518C5.84429 17.8058 5.29194 17.6445 4.72363 17.5732L4.43848 17.5449C3.79051 17.4986 3.14015 17.5708 2.52148 17.7559C1.68802 16.8146 1.03645 15.7439 0.594727 14.5908C0.99247 14.2387 1.33173 13.8298 1.5957 13.375L1.72852 13.1299C2.06395 12.4664 2.23916 11.7384 2.23926 11L2.23047 10.71C2.15039 9.40107 1.53068 8.23685 0.592773 7.40625C1.03558 6.25452 1.68772 5.18497 2.52148 4.24512C3.04956 4.40273 3.60035 4.47917 4.15332 4.46875L4.43945 4.45605C5.10768 4.40775 5.7592 4.23453 6.35742 3.94727L6.61035 3.81738C7.19222 3.49818 7.70346 3.07304 8.11426 2.56543L8.28418 2.34277C8.64895 1.83547 8.90739 1.26638 9.05176 0.666992ZM11.001 7.20117C10.0208 7.20117 9.07362 7.54804 8.34375 8.17578L8.2002 8.30566C7.45261 9.01597 7.02738 9.98488 7.02734 11.001C7.02734 11.9536 7.40081 12.8651 8.06348 13.5605L8.2002 13.6963C8.94704 14.4058 9.95527 14.8008 11.001 14.8008C11.9813 14.8007 12.9284 14.4541 13.6582 13.8262L13.8008 13.6963C14.5484 12.986 14.9736 12.0171 14.9736 11.001C14.9736 10.0483 14.6003 9.13687 13.9375 8.44141L13.8008 8.30566C13.054 7.59623 12.0465 7.20127 11.001 7.20117Z" fill="#4D4D4D" stroke="#4D4D4D"/>
</svg>
