<svg width="30" height="30" viewBox="0 0 30 30" fill="none" xmlns="http://www.w3.org/2000/svg">
<path fill-rule="evenodd" clip-rule="evenodd" d="M15 4.0625C15.2486 4.0625 15.4871 4.16127 15.6629 4.33709C15.8387 4.5129 15.9375 4.75136 15.9375 5V25C15.9375 25.2486 15.8387 25.4871 15.6629 25.6629C15.4871 25.8387 15.2486 25.9375 15 25.9375C14.7514 25.9375 14.5129 25.8387 14.3371 25.6629C14.1613 25.4871 14.0625 25.2486 14.0625 25V5C14.0625 4.75136 14.1613 4.5129 14.3371 4.33709C14.5129 4.16127 14.7514 4.0625 15 4.0625ZM10 7.8125C10.2486 7.8125 10.4871 7.91127 10.6629 8.08709C10.8387 8.2629 10.9375 8.50136 10.9375 8.75V21.25C10.9375 21.4986 10.8387 21.7371 10.6629 21.9129C10.4871 22.0887 10.2486 22.1875 10 22.1875C9.75136 22.1875 9.5129 22.0887 9.33709 21.9129C9.16127 21.7371 9.0625 21.4986 9.0625 21.25V8.75C9.0625 8.50136 9.16127 8.2629 9.33709 8.08709C9.5129 7.91127 9.75136 7.8125 10 7.8125ZM20 7.8125C20.2486 7.8125 20.4871 7.91127 20.6629 8.08709C20.8387 8.2629 20.9375 8.50136 20.9375 8.75V21.25C20.9375 21.4986 20.8387 21.7371 20.6629 21.9129C20.4871 22.0887 20.2486 22.1875 20 22.1875C19.7514 22.1875 19.5129 22.0887 19.3371 21.9129C19.1613 21.7371 19.0625 21.4986 19.0625 21.25V8.75C19.0625 8.50136 19.1613 8.2629 19.3371 8.08709C19.5129 7.91127 19.7514 7.8125 20 7.8125ZM5 12.8125C5.24864 12.8125 5.4871 12.9113 5.66291 13.0871C5.83873 13.2629 5.9375 13.5014 5.9375 13.75V16.25C5.9375 16.4986 5.83873 16.7371 5.66291 16.9129C5.4871 17.0887 5.24864 17.1875 5 17.1875C4.75136 17.1875 4.5129 17.0887 4.33709 16.9129C4.16127 16.7371 4.0625 16.4986 4.0625 16.25V13.75C4.0625 13.5014 4.16127 13.2629 4.33709 13.0871C4.5129 12.9113 4.75136 12.8125 5 12.8125ZM25 12.8125C25.2486 12.8125 25.4871 12.9113 25.6629 13.0871C25.8387 13.2629 25.9375 13.5014 25.9375 13.75V16.25C25.9375 16.4986 25.8387 16.7371 25.6629 16.9129C25.4871 17.0887 25.2486 17.1875 25 17.1875C24.7514 17.1875 24.5129 17.0887 24.3371 16.9129C24.1613 16.7371 24.0625 16.4986 24.0625 16.25V13.75C24.0625 13.5014 24.1613 13.2629 24.3371 13.0871C24.5129 12.9113 24.7514 12.8125 25 12.8125Z" fill="black"/>
</svg>
