<svg width="22" height="22" viewBox="0 0 22 22" xmlns="http://www.w3.org/2000/svg">
<path d="M8.6319 0.233538C10.1932 -0.0771031 11.8053 -0.0778521 13.3669 0.231338C13.4717 0.883788 13.7296 1.50549 14.1216 2.05038C14.5136 2.59528 15.0296 3.0494 15.6314 3.37912C16.2331 3.70913 16.9053 3.90628 17.5981 3.95597C18.2909 4.00567 18.9866 3.90662 19.6336 3.66618C20.6966 4.7974 21.5019 6.12523 21.9988 7.56626C21.457 7.97838 21.0196 8.50094 20.7191 9.0953C20.4185 9.68965 20.2624 10.3406 20.2623 11C20.2623 12.3902 20.9407 13.6297 22 14.4359C21.5019 15.876 20.6959 17.2027 19.6325 18.3327C18.9856 18.0924 18.2901 17.9935 17.5975 18.0432C16.9049 18.0929 16.233 18.2899 15.6314 18.6198C15.0301 18.9494 14.5145 19.4032 14.1227 19.9477C13.7309 20.4922 13.473 21.1134 13.3681 21.7654C11.8069 22.0767 10.1949 22.0782 8.63306 21.7698C8.52877 21.117 8.27117 20.4949 7.87937 19.9497C7.48757 19.4044 6.97161 18.9498 6.36973 18.6198C5.76794 18.2899 5.09573 18.093 4.40293 18.0435C3.71013 17.994 3.01448 18.0932 2.36752 18.3338C1.30455 17.2026 0.499286 15.8748 0.00231553 14.4337C0.544137 14.0216 0.981513 13.4991 1.2821 12.9047C1.58269 12.3103 1.7388 11.6594 1.73888 11C1.73888 9.60978 1.05931 8.37135 0 7.56406C0.498238 6.12441 1.30427 4.79811 2.36752 3.66838C3.01473 3.90849 3.71052 4.00717 4.40333 3.95709C5.09614 3.90702 5.7682 3.70948 6.36973 3.37912C6.97084 3.04938 7.48623 2.59549 7.8778 2.05102C8.26936 1.50654 8.52709 0.885399 8.6319 0.233538ZM11.0006 14.3007C11.9217 14.3007 12.8051 13.953 13.4565 13.3342C14.1078 12.7155 14.4737 11.8762 14.4737 11.0011C14.4737 10.126 14.1078 9.28674 13.4565 8.66796C12.8051 8.04917 11.9217 7.70154 11.0006 7.70154C10.0794 7.70154 9.19604 8.04917 8.5447 8.66796C7.89336 9.28674 7.52744 10.126 7.52744 11.0011C7.52744 11.8762 7.89336 12.7155 8.5447 13.3342C9.19604 13.953 10.0794 14.3007 11.0006 14.3007Z"/>
</svg>
