<svg width="22" height="22" viewBox="0 0 22 22" xmlns="http://www.w3.org/2000/svg">
<path fill-rule="evenodd" clip-rule="evenodd" d="M11 1.42652e-06C4.9247 1.16096e-06 -3.06831e-06 4.9247 -3.33387e-06 11C-3.4108e-06 12.76 0.413597 14.4232 1.1484 15.8972C1.35003 16.2864 1.40208 16.7361 1.2947 17.1611L0.639097 19.6097C0.574427 19.852 0.574646 20.1072 0.639732 20.3494C0.704819 20.5917 0.832483 20.8125 1.00991 20.9898C1.18734 21.1672 1.40829 21.2947 1.65058 21.3596C1.89287 21.4245 2.14798 21.4246 2.3903 21.3598L4.8389 20.7053C5.2637 20.5985 5.7129 20.651 6.1017 20.8527C7.62337 21.6099 9.30034 22.0027 11 22C17.0753 22 22 17.0753 22 11C22 4.9247 17.0753 1.69208e-06 11 1.42652e-06ZM16.225 11C16.225 10.7812 16.1381 10.5713 15.9834 10.4166C15.8286 10.2619 15.6188 10.175 15.4 10.175L6.6 10.175C6.38119 10.175 6.17135 10.2619 6.01663 10.4166C5.86192 10.5713 5.775 10.7812 5.775 11C5.775 11.2188 5.86192 11.4286 6.01663 11.5834C6.17135 11.7381 6.38119 11.825 6.6 11.825L15.4 11.825C15.6188 11.825 15.8286 11.7381 15.9834 11.5834C16.1381 11.4286 16.225 11.2188 16.225 11ZM13.2 14.575C13.4188 14.575 13.6286 14.6619 13.7834 14.8166C13.9381 14.9713 14.025 15.1812 14.025 15.4C14.025 15.6188 13.9381 15.8286 13.7834 15.9834C13.6286 16.1381 13.4188 16.225 13.2 16.225L8.8 16.225C8.5812 16.225 8.37135 16.1381 8.21664 15.9834C8.06192 15.8286 7.975 15.6188 7.975 15.4C7.975 15.1812 8.06192 14.9713 8.21664 14.8166C8.37135 14.6619 8.5812 14.575 8.8 14.575L13.2 14.575ZM14.025 6.6C14.025 6.38119 13.9381 6.17135 13.7834 6.01663C13.6286 5.86192 13.4188 5.775 13.2 5.775L8.8 5.775C8.5812 5.775 8.37135 5.86192 8.21664 6.01663C8.06192 6.17135 7.975 6.38119 7.975 6.6C7.975 6.8188 8.06192 7.02864 8.21664 7.18336C8.37135 7.33808 8.5812 7.425 8.8 7.425L13.2 7.425C13.4188 7.425 13.6286 7.33808 13.7834 7.18336C13.9381 7.02864 14.025 6.8188 14.025 6.6Z"/>
</svg>
