<svg width="22" height="22" viewBox="0 0 22 22" xmlns="http://www.w3.org/2000/svg">
<path d="M1 12.5H5C5.18638 12.5 5.30248 12.5603 5.37109 12.6289C5.4397 12.6975 5.5 12.8136 5.5 13V21C5.5 21.1864 5.4397 21.3025 5.37109 21.3711C5.30248 21.4397 5.18638 21.5 5 21.5H1C0.813624 21.5 0.697517 21.4397 0.628906 21.3711C0.560296 21.3025 0.5 21.1864 0.5 21V13C0.5 12.8136 0.560296 12.6975 0.628906 12.6289C0.697517 12.5603 0.813624 12.5 1 12.5ZM9 0.5H13C13.1864 0.5 13.3025 0.560296 13.3711 0.628906C13.4397 0.697517 13.5 0.813624 13.5 1V21C13.5 21.1864 13.4397 21.3025 13.3711 21.3711C13.3025 21.4397 13.1864 21.5 13 21.5H9C8.81362 21.5 8.69752 21.4397 8.62891 21.3711C8.5603 21.3025 8.5 21.1864 8.5 21V1C8.5 0.813624 8.5603 0.697517 8.62891 0.628906C8.69752 0.560296 8.81362 0.5 9 0.5ZM17 8.5H21C21.1864 8.5 21.3025 8.5603 21.3711 8.62891C21.4397 8.69752 21.5 8.81362 21.5 9V21C21.5 21.1864 21.4397 21.3025 21.3711 21.3711C21.3025 21.4397 21.1864 21.5 21 21.5H17C16.8136 21.5 16.6975 21.4397 16.6289 21.3711C16.5603 21.3025 16.5 21.1864 16.5 21V9C16.5 8.81362 16.5603 8.69752 16.6289 8.62891C16.6975 8.5603 16.8136 8.5 17 8.5Z"/>
</svg>
